<svg id="SvgjsSvg1006" width="833.578125" height="476.53125" xmlns="http://www.w3.org/2000/svg" version="1.1" xmlns:xlink="http://www.w3.org/1999/xlink" xmlns:svgjs="http://svgjs.com/svgjs"><defs id="SvgjsDefs1007"><marker id="SvgjsMarker1040" markerWidth="16" markerHeight="12" refX="16" refY="6" viewBox="0 0 16 12" orient="auto" markerUnits="userSpaceOnUse"><path id="SvgjsPath1041" d="M0,2 L14,6 L0,11 L0,2" fill="#323232" stroke="#323232" stroke-width="2"></path></marker><marker id="SvgjsMarker1044" markerWidth="16" markerHeight="12" refX="16" refY="6" viewBox="0 0 16 12" orient="auto" markerUnits="userSpaceOnUse"><path id="SvgjsPath1045" d="M0,2 L14,6 L0,11 L0,2" fill="#323232" stroke="#323232" stroke-width="2"></path></marker><marker id="SvgjsMarker1056" markerWidth="16" markerHeight="12" refX="16" refY="6" viewBox="0 0 16 12" orient="auto" markerUnits="userSpaceOnUse"><path id="SvgjsPath1057" d="M0,2 L14,6 L0,11 L0,2" fill="#323232" stroke="#323232" stroke-width="2"></path></marker><marker id="SvgjsMarker1060" markerWidth="16" markerHeight="12" refX="16" refY="6" viewBox="0 0 16 12" orient="auto" markerUnits="userSpaceOnUse"><path id="SvgjsPath1061" d="M0,2 L14,6 L0,11 L0,2" fill="#323232" stroke="#323232" stroke-width="2"></path></marker><marker id="SvgjsMarker1090" markerWidth="16" markerHeight="12" refX="16" refY="6" viewBox="0 0 16 12" orient="auto" markerUnits="userSpaceOnUse"><path id="SvgjsPath1091" d="M0,2 L14,6 L0,11 L0,2" fill="#323232" stroke="#323232" stroke-width="2"></path></marker><marker id="SvgjsMarker1094" markerWidth="16" markerHeight="12" refX="16" refY="6" viewBox="0 0 16 12" orient="auto" markerUnits="userSpaceOnUse"><path id="SvgjsPath1095" d="M0,2 L14,6 L0,11 L0,2" fill="#323232" stroke="#323232" stroke-width="2"></path></marker><marker id="SvgjsMarker1106" markerWidth="16" markerHeight="12" refX="16" refY="6" viewBox="0 0 16 12" orient="auto" markerUnits="userSpaceOnUse"><path id="SvgjsPath1107" d="M0,2 L14,6 L0,11 L0,2" fill="#323232" stroke="#323232" stroke-width="2"></path></marker><marker id="SvgjsMarker1134" markerWidth="16" markerHeight="12" refX="16" refY="6" viewBox="0 0 16 12" orient="auto" markerUnits="userSpaceOnUse"><path id="SvgjsPath1135" d="M0,2 L14,6 L0,11 L0,2" fill="#323232" stroke="#323232" stroke-width="2"></path></marker><marker id="SvgjsMarker1150" markerWidth="16" markerHeight="12" refX="16" refY="6" viewBox="0 0 16 12" orient="auto" markerUnits="userSpaceOnUse"><path id="SvgjsPath1151" d="M0,2 L14,6 L0,11 L0,2" fill="#323232" stroke="#323232" stroke-width="2"></path></marker><marker id="SvgjsMarker1154" markerWidth="16" markerHeight="12" refX="16" refY="6" viewBox="0 0 16 12" orient="auto" markerUnits="userSpaceOnUse"><path id="SvgjsPath1155" d="M0,2 L14,6 L0,11 L0,2" fill="#323232" stroke="#323232" stroke-width="2"></path></marker><marker id="SvgjsMarker1170" markerWidth="16" markerHeight="12" refX="16" refY="6" viewBox="0 0 16 12" orient="auto" markerUnits="userSpaceOnUse"><path id="SvgjsPath1171" d="M0,2 L14,6 L0,11 L0,2" fill="#323232" stroke="#323232" stroke-width="2"></path></marker><marker id="SvgjsMarker1174" markerWidth="16" markerHeight="12" refX="16" refY="6" viewBox="0 0 16 12" orient="auto" markerUnits="userSpaceOnUse"><path id="SvgjsPath1175" d="M0,2 L14,6 L0,11 L0,2" fill="#323232" stroke="#323232" stroke-width="2"></path></marker><marker id="SvgjsMarker1198" markerWidth="16" markerHeight="12" refX="16" refY="6" viewBox="0 0 16 12" orient="auto" markerUnits="userSpaceOnUse"><path id="SvgjsPath1199" d="M0,2 L14,6 L0,11 L0,2" fill="#323232" stroke="#323232" stroke-width="2"></path></marker><marker id="SvgjsMarker1208" markerWidth="16" markerHeight="12" refX="16" refY="6" viewBox="0 0 16 12" orient="auto" markerUnits="userSpaceOnUse"><path id="SvgjsPath1209" d="M0,2 L14,6 L0,11 L0,2" fill="#323232" stroke="#323232" stroke-width="2"></path></marker><marker id="SvgjsMarker1212" markerWidth="16" markerHeight="12" refX="16" refY="6" viewBox="0 0 16 12" orient="auto" markerUnits="userSpaceOnUse"><path id="SvgjsPath1213" d="M0,2 L14,6 L0,11 L0,2" fill="#323232" stroke="#323232" stroke-width="2"></path></marker><marker id="SvgjsMarker1216" markerWidth="16" markerHeight="12" refX="16" refY="6" viewBox="0 0 16 12" orient="auto" markerUnits="userSpaceOnUse"><path id="SvgjsPath1217" d="M0,2 L14,6 L0,11 L0,2" fill="#323232" stroke="#323232" stroke-width="2"></path></marker><marker id="SvgjsMarker1242" markerWidth="16" markerHeight="12" refX="16" refY="6" viewBox="0 0 16 12" orient="auto" markerUnits="userSpaceOnUse"><path id="SvgjsPath1243" d="M0,2 L14,6 L0,11 L0,2" fill="#323232" stroke="#323232" stroke-width="2"></path></marker><marker id="SvgjsMarker1268" markerWidth="16" markerHeight="12" refX="16" refY="6" viewBox="0 0 16 12" orient="auto" markerUnits="userSpaceOnUse"><path id="SvgjsPath1269" d="M0,2 L14,6 L0,11 L0,2" fill="#323232" stroke="#323232" stroke-width="2"></path></marker><marker id="SvgjsMarker1272" markerWidth="16" markerHeight="12" refX="16" refY="6" viewBox="0 0 16 12" orient="auto" markerUnits="userSpaceOnUse"><path id="SvgjsPath1273" d="M0,2 L14,6 L0,11 L0,2" fill="#323232" stroke="#323232" stroke-width="2"></path></marker><marker id="SvgjsMarker1276" markerWidth="16" markerHeight="12" refX="16" refY="6" viewBox="0 0 16 12" orient="auto" markerUnits="userSpaceOnUse"><path id="SvgjsPath1277" d="M0,2 L14,6 L0,11 L0,2" fill="#323232" stroke="#323232" stroke-width="2"></path></marker><marker id="SvgjsMarker1286" markerWidth="16" markerHeight="12" refX="16" refY="6" viewBox="0 0 16 12" orient="auto" markerUnits="userSpaceOnUse"><path id="SvgjsPath1287" d="M0,2 L14,6 L0,11 L0,2" fill="#323232" stroke="#323232" stroke-width="2"></path></marker></defs><g id="SvgjsG1008" transform="translate(50.15646999664767,25)"><path id="SvgjsPath1009" d="M 11.81977004437964 0L 74.86728996232503 0C 90.62698335483121 0 90.62698335483121 35.45931013313892 74.86728996232503 35.45931013313892L 11.81977004437964 35.45931013313892C -3.9399233481265465 35.45931013313892 -3.9399233481265465 0 11.81977004437964 0Z" stroke="rgba(50,50,50,1)" stroke-width="2" fill-opacity="1" fill="#ffffff"></path><g id="SvgjsG1010"><text id="SvgjsText1011" font-family="微软雅黑" text-anchor="middle" font-size="14px" width="28" fill="#323232" font-weight="400" align="middle" anchor="middle" family="微软雅黑" size="14px" weight="400" font-style="" opacity="1" y="6.629655066569461" transform="rotate(0)"><tspan id="SvgjsTspan1012" dy="17" x="43.5"><tspan id="SvgjsTspan1013" style="text-decoration:;">开始</tspan></tspan></text></g></g><g id="SvgjsG1014" transform="translate(27.617834394904435,87.5608717338756)"><path id="SvgjsPath1015" d="M 14.506081418102292 0L 131.76433121019107 0L 117.25824979208878 43.51824425430688L 0 43.51824425430688L 14.506081418102292 0Z" stroke="rgba(50,50,50,1)" stroke-width="2" fill-opacity="1" fill="#ffffff"></path><g id="SvgjsG1016"><text id="SvgjsText1017" font-family="微软雅黑" text-anchor="middle" font-size="14px" width="70" fill="#323232" font-weight="400" align="middle" anchor="middle" family="微软雅黑" size="14px" weight="400" font-style="" opacity="1" y="1.6591221271534393" transform="rotate(0)"><tspan id="SvgjsTspan1018" dy="17" x="66.26464968152865"><tspan id="SvgjsTspan1019" style="text-decoration:;">输入成绩表</tspan></tspan><tspan id="SvgjsTspan1020" dy="17" x="66.26464968152865"><tspan id="SvgjsTspan1021" style="text-decoration:;">TABLE</tspan></tspan></text></g></g><g id="SvgjsG1022" transform="translate(25,156.2089552238806)"><path id="SvgjsPath1023" d="M 0 0L 137 0L 137 37.865671641791046L 0 37.865671641791046Z" stroke="rgba(50,50,50,1)" stroke-width="2" fill-opacity="1" fill="#ffffff"></path><g id="SvgjsG1024"><text id="SvgjsText1025" font-family="微软雅黑" text-anchor="middle" font-size="14px" width="84" fill="#323232" font-weight="400" align="middle" anchor="middle" family="微软雅黑" size="14px" weight="400" font-style="" opacity="1" y="-10.167164179104477" transform="rotate(0)"><tspan id="SvgjsTspan1026" dy="17" x="68.5"><tspan id="SvgjsTspan1027" style="text-decoration:;">表偏移地址送</tspan></tspan><tspan id="SvgjsTspan1028" dy="17" x="68.5"><tspan id="SvgjsTspan1029" style="text-decoration:;">BX&lt;/br&gt;待查元素</tspan></tspan><tspan id="SvgjsTspan1030" dy="17" x="68.5"><tspan id="SvgjsTspan1031" style="text-decoration:;">序号送AL</tspan></tspan></text></g></g><g id="SvgjsG1032" transform="translate(50.15646999664767,284.5406898668611)"><path id="SvgjsPath1033" d="M 11.81977004437964 0L 74.86728996232503 0C 90.62698335483121 0 90.62698335483121 35.45931013313892 74.86728996232503 35.45931013313892L 11.81977004437964 35.45931013313892C -3.9399233481265465 35.45931013313892 -3.9399233481265465 0 11.81977004437964 0Z" stroke="rgba(50,50,50,1)" stroke-width="2" fill-opacity="1" fill="#ffffff"></path><g id="SvgjsG1034"><text id="SvgjsText1035" font-family="微软雅黑" text-anchor="middle" font-size="14px" width="28" fill="#323232" font-weight="400" align="middle" anchor="middle" family="微软雅黑" size="14px" weight="400" font-style="" opacity="1" y="6.629655066569461" transform="rotate(0)"><tspan id="SvgjsTspan1036" dy="17" x="43.5"><tspan id="SvgjsTspan1037" style="text-decoration:;">结束</tspan></tspan></text></g></g><g id="SvgjsG1038"><path id="SvgjsPath1039" d="M93.5 60.45931013313893L93.5 74.01009093350726L93.5 74.01009093350726L93.5 87.5608717338756" stroke="#323232" stroke-width="2" fill="none" marker-end="url(#SvgjsMarker1040)"></path></g><g id="SvgjsG1042"><path id="SvgjsPath1043" d="M93.5 131.07911598818245L93.5 143.64403560603154L93.5 143.64403560603154L93.5 156.2089552238806" stroke="#323232" stroke-width="2" fill="none" marker-end="url(#SvgjsMarker1044)"></path></g><g id="SvgjsG1046" transform="translate(27.617834394904435,217.8507462686567)"><path id="SvgjsPath1047" d="M 0 0L 131.76433121019107 0L 131.76433121019107 41.38805970149254L 0 41.38805970149254Z" stroke="rgba(50,50,50,1)" stroke-width="2" fill-opacity="1" fill="#ffffff"></path><g id="SvgjsG1048"><text id="SvgjsText1049" font-family="微软雅黑" text-anchor="middle" font-size="14px" width="78" fill="#323232" font-weight="400" align="middle" anchor="middle" family="微软雅黑" size="14px" weight="400" font-style="" opacity="1" y="0.5940298507462685" transform="rotate(0)"><tspan id="SvgjsTspan1050" dy="17" x="66"><tspan id="SvgjsTspan1051" style="text-decoration:;">XLAT&lt;/br&gt;(指定</tspan></tspan><tspan id="SvgjsTspan1052" dy="17" x="66"><tspan id="SvgjsTspan1053" style="text-decoration:;">数据存入AL)</tspan></tspan></text></g></g><g id="SvgjsG1054"><path id="SvgjsPath1055" d="M93.5 194.07462686567163L93.5 205.96268656716416L93.5 205.96268656716416L93.5 217.8507462686567" stroke="#323232" stroke-width="2" fill="none" marker-end="url(#SvgjsMarker1056)"></path></g><g id="SvgjsG1058"><path id="SvgjsPath1059" d="M93.5 259.23880597014926L93.5 271.8897479185052L93.5 271.8897479185052L93.5 284.5406898668611" stroke="#323232" stroke-width="2" fill="none" marker-end="url(#SvgjsMarker1060)"></path></g><g id="SvgjsG1062" transform="translate(279.1564699966477,25)"><path id="SvgjsPath1063" d="M 11.81977004437964 0L 74.86728996232503 0C 90.62698335483121 0 90.62698335483121 35.45931013313892 74.86728996232503 35.45931013313892L 11.81977004437964 35.45931013313892C -3.9399233481265465 35.45931013313892 -3.9399233481265465 0 11.81977004437964 0Z" stroke="rgba(50,50,50,1)" stroke-width="2" fill-opacity="1" fill="#ffffff"></path><g id="SvgjsG1064"><text id="SvgjsText1065" font-family="微软雅黑" text-anchor="middle" font-size="14px" width="28" fill="#323232" font-weight="400" align="middle" anchor="middle" family="微软雅黑" size="14px" weight="400" font-style="" opacity="1" y="6.629655066569461" transform="rotate(0)"><tspan id="SvgjsTspan1066" dy="17" x="43.5"><tspan id="SvgjsTspan1067" style="text-decoration:;">开始</tspan></tspan></text></g></g><g id="SvgjsG1068" transform="translate(256.61783439490443,87.56087173387562)"><path id="SvgjsPath1069" d="M 14.506081418102292 0L 131.76433121019107 0L 117.25824979208878 43.51824425430688L 0 43.51824425430688L 14.506081418102292 0Z" stroke="rgba(50,50,50,1)" stroke-width="2" fill-opacity="1" fill="#ffffff"></path><g id="SvgjsG1070"><text id="SvgjsText1071" font-family="微软雅黑" text-anchor="middle" font-size="14px" width="86" fill="#323232" font-weight="400" align="middle" anchor="middle" family="微软雅黑" size="14px" weight="400" font-style="" opacity="1" y="1.6591221271534393" transform="rotate(0)"><tspan id="SvgjsTspan1072" dy="17" x="66.26464968152865"><tspan id="SvgjsTspan1073" style="text-decoration:;">存入10个无符</tspan></tspan><tspan id="SvgjsTspan1074" dy="17" x="66.26464968152865"><tspan id="SvgjsTspan1075" style="text-decoration:;">号数</tspan></tspan></text></g></g><g id="SvgjsG1076" transform="translate(254,156.2089552238806)"><path id="SvgjsPath1077" d="M 0 0L 137 0L 137 37.865671641791046L 0 37.865671641791046Z" stroke="rgba(50,50,50,1)" stroke-width="2" fill-opacity="1" fill="#ffffff"></path><g id="SvgjsG1078"><text id="SvgjsText1079" font-family="微软雅黑" text-anchor="middle" font-size="14px" width="97" fill="#323232" font-weight="400" align="middle" anchor="middle" family="微软雅黑" size="14px" weight="400" font-style="" opacity="1" y="7.832835820895523" transform="rotate(0)"><tspan id="SvgjsTspan1080" dy="17" x="68.5"><tspan id="SvgjsTspan1081" style="text-decoration:;">比较次数9送CX</tspan></tspan></text></g></g><g id="SvgjsG1082" transform="translate(279.1564699966477,371.54068986686116)"><path id="SvgjsPath1083" d="M 11.81977004437964 0L 74.86728996232503 0C 90.62698335483121 0 90.62698335483121 35.45931013313892 74.86728996232503 35.45931013313892L 11.81977004437964 35.45931013313892C -3.9399233481265465 35.45931013313892 -3.9399233481265465 0 11.81977004437964 0Z" stroke="rgba(50,50,50,1)" stroke-width="2" fill-opacity="1" fill="#ffffff"></path><g id="SvgjsG1084"><text id="SvgjsText1085" font-family="微软雅黑" text-anchor="middle" font-size="14px" width="28" fill="#323232" font-weight="400" align="middle" anchor="middle" family="微软雅黑" size="14px" weight="400" font-style="" opacity="1" y="6.629655066569461" transform="rotate(0)"><tspan id="SvgjsTspan1086" dy="17" x="43.5"><tspan id="SvgjsTspan1087" style="text-decoration:;">结束</tspan></tspan></text></g></g><g id="SvgjsG1088"><path id="SvgjsPath1089" d="M322.5 60.45931013313893L322.5 74.01009093350727L322.5 74.01009093350727L322.5 87.56087173387562" stroke="#323232" stroke-width="2" fill="none" marker-end="url(#SvgjsMarker1090)"></path></g><g id="SvgjsG1092"><path id="SvgjsPath1093" d="M322.5 131.07911598818248L322.5 143.64403560603154L322.5 143.64403560603154L322.5 156.2089552238806" stroke="#323232" stroke-width="2" fill="none" marker-end="url(#SvgjsMarker1094)"></path></g><g id="SvgjsG1096" transform="translate(256.61783439490443,217.85074626865674)"><path id="SvgjsPath1097" d="M 0 0L 131.76433121019107 0L 131.76433121019107 41.38805970149254L 0 41.38805970149254Z" stroke="rgba(50,50,50,1)" stroke-width="2" fill-opacity="1" fill="#ffffff"></path><g id="SvgjsG1098"><text id="SvgjsText1099" font-family="微软雅黑" text-anchor="middle" font-size="14px" width="61" fill="#323232" font-weight="400" align="middle" anchor="middle" family="微软雅黑" size="14px" weight="400" font-style="" opacity="1" y="0.5940298507462685" transform="rotate(0)"><tspan id="SvgjsTspan1100" dy="17" x="66"><tspan id="SvgjsTspan1101" style="text-decoration:;">比较大小&lt;/br&gt;大</tspan></tspan><tspan id="SvgjsTspan1102" dy="17" x="66"><tspan id="SvgjsTspan1103" style="text-decoration:;">数送MAX</tspan></tspan></text></g></g><g id="SvgjsG1104"><path id="SvgjsPath1105" d="M322.5 194.07462686567163L322.5 205.96268656716418L322.5 205.96268656716418L322.5 217.85074626865674" stroke="#323232" stroke-width="2" fill="none" marker-end="url(#SvgjsMarker1106)"></path></g><g id="SvgjsG1108" transform="translate(459.1564699966477,25)"><path id="SvgjsPath1109" d="M 11.81977004437964 0L 74.86728996232503 0C 90.62698335483121 0 90.62698335483121 35.45931013313892 74.86728996232503 35.45931013313892L 11.81977004437964 35.45931013313892C -3.9399233481265465 35.45931013313892 -3.9399233481265465 0 11.81977004437964 0Z" stroke="rgba(50,50,50,1)" stroke-width="2" fill-opacity="1" fill="#ffffff"></path><g id="SvgjsG1110"><text id="SvgjsText1111" font-family="微软雅黑" text-anchor="middle" font-size="14px" width="28" fill="#323232" font-weight="400" align="middle" anchor="middle" family="微软雅黑" size="14px" weight="400" font-style="" opacity="1" y="6.629655066569461" transform="rotate(0)"><tspan id="SvgjsTspan1112" dy="17" x="43.5"><tspan id="SvgjsTspan1113" style="text-decoration:;">开始</tspan></tspan></text></g></g><g id="SvgjsG1114" transform="translate(434,84.56087173387562)"><path id="SvgjsPath1115" d="M 0 0L 137 0L 137 71.64808349000498L 0 71.64808349000498Z" stroke="rgba(50,50,50,1)" stroke-width="2" fill-opacity="1" fill="#ffffff"></path><g id="SvgjsG1116"><text id="SvgjsText1117" font-family="微软雅黑" text-anchor="middle" font-size="14px" width="98" fill="#323232" font-weight="400" align="middle" anchor="middle" family="微软雅黑" size="14px" weight="400" font-style="" opacity="1" y="-2.275958254997511" transform="rotate(0)"><tspan id="SvgjsTspan1118" dy="17" x="68.5"><tspan id="SvgjsTspan1119" style="text-decoration:;">取要转换的位数</tspan></tspan><tspan id="SvgjsTspan1120" dy="17" x="68.5"><tspan id="SvgjsTspan1121" style="text-decoration:;">8&lt;/br&gt;取存结果</tspan></tspan><tspan id="SvgjsTspan1122" dy="17" x="68.5"><tspan id="SvgjsTspan1123" style="text-decoration:;">的地址&lt;/br&gt;待转</tspan></tspan><tspan id="SvgjsTspan1124" dy="17" x="68.5"><tspan id="SvgjsTspan1125" style="text-decoration:;">换数据送DX</tspan></tspan></text></g></g><g id="SvgjsG1126" transform="translate(459.1564699966476,416.54068986686116)"><path id="SvgjsPath1127" d="M 11.81977004437964 0L 74.86728996232503 0C 90.62698335483121 0 90.62698335483121 35.45931013313892 74.86728996232503 35.45931013313892L 11.81977004437964 35.45931013313892C -3.9399233481265465 35.45931013313892 -3.9399233481265465 0 11.81977004437964 0Z" stroke="rgba(50,50,50,1)" stroke-width="2" fill-opacity="1" fill="#ffffff"></path><g id="SvgjsG1128"><text id="SvgjsText1129" font-family="微软雅黑" text-anchor="middle" font-size="14px" width="28" fill="#323232" font-weight="400" align="middle" anchor="middle" family="微软雅黑" size="14px" weight="400" font-style="" opacity="1" y="6.629655066569461" transform="rotate(0)"><tspan id="SvgjsTspan1130" dy="17" x="43.5"><tspan id="SvgjsTspan1131" style="text-decoration:;">结束</tspan></tspan></text></g></g><g id="SvgjsG1132"><path id="SvgjsPath1133" d="M502.5 60.45931013313893L502.5 72.51009093350727L502.5 72.51009093350727L502.5 84.56087173387562" stroke="#323232" stroke-width="2" fill="none" marker-end="url(#SvgjsMarker1134)"></path></g><g id="SvgjsG1136" transform="translate(434,185.56087173387562)"><path id="SvgjsPath1137" d="M 0 0L 137 0L 137 37.865671641791046L 0 37.865671641791046Z" stroke="rgba(50,50,50,1)" stroke-width="2" fill-opacity="1" fill="#ffffff"></path><g id="SvgjsG1138"><text id="SvgjsText1139" font-family="微软雅黑" text-anchor="middle" font-size="14px" width="70" fill="#323232" font-weight="400" align="middle" anchor="middle" family="微软雅黑" size="14px" weight="400" font-style="" opacity="1" y="7.832835820895523" transform="rotate(0)"><tspan id="SvgjsTspan1140" dy="17" x="68.5"><tspan id="SvgjsTspan1141" style="text-decoration:;">调用子程序</tspan></tspan></text></g></g><g id="SvgjsG1142" transform="translate(434,353.5608717338755)"><path id="SvgjsPath1143" d="M 0 0L 137 0L 137 37.865671641791046L 0 37.865671641791046Z" stroke="rgba(50,50,50,1)" stroke-width="2" fill-opacity="1" fill="#ffffff"></path><g id="SvgjsG1144"><text id="SvgjsText1145" font-family="微软雅黑" text-anchor="middle" font-size="14px" width="70" fill="#323232" font-weight="400" align="middle" anchor="middle" family="微软雅黑" size="14px" weight="400" font-style="" opacity="1" y="7.832835820895523" transform="rotate(0)"><tspan id="SvgjsTspan1146" dy="17" x="68.5"><tspan id="SvgjsTspan1147" style="text-decoration:;">调用子程序</tspan></tspan></text></g></g><g id="SvgjsG1148"><path id="SvgjsPath1149" d="M502.5 391.4265433756666L502.5 403.9836166212639L502.5 403.9836166212639L502.5 416.54068986686116" stroke="#323232" stroke-width="2" fill="none" marker-end="url(#SvgjsMarker1150)"></path></g><g id="SvgjsG1152"><path id="SvgjsPath1153" d="M502.5 156.2089552238806L502.5 170.8849134788781L502.5 170.8849134788781L502.5 185.56087173387562" stroke="#323232" stroke-width="2" fill="none" marker-end="url(#SvgjsMarker1154)"></path></g><g id="SvgjsG1156" transform="translate(434,251.56087173387562)"><path id="SvgjsPath1157" d="M 0 0L 137 0L 137 71.64808349000498L 0 71.64808349000498Z" stroke="rgba(50,50,50,1)" stroke-width="2" fill-opacity="1" fill="#ffffff"></path><g id="SvgjsG1158"><text id="SvgjsText1159" font-family="微软雅黑" text-anchor="middle" font-size="14px" width="98" fill="#323232" font-weight="400" align="middle" anchor="middle" family="微软雅黑" size="14px" weight="400" font-style="" opacity="1" y="-2.275958254997511" transform="rotate(0)"><tspan id="SvgjsTspan1160" dy="17" x="68.5"><tspan id="SvgjsTspan1161" style="text-decoration:;">取要转换的位数</tspan></tspan><tspan id="SvgjsTspan1162" dy="17" x="68.5"><tspan id="SvgjsTspan1163" style="text-decoration:;">16&lt;/br&gt;取存结果</tspan></tspan><tspan id="SvgjsTspan1164" dy="17" x="68.5"><tspan id="SvgjsTspan1165" style="text-decoration:;">的地址&lt;/br&gt;待转</tspan></tspan><tspan id="SvgjsTspan1166" dy="17" x="68.5"><tspan id="SvgjsTspan1167" style="text-decoration:;">换数据送DX</tspan></tspan></text></g></g><g id="SvgjsG1168"><path id="SvgjsPath1169" d="M502.5 223.42654337566665L502.5 237.49370755477116L502.5 237.49370755477116L502.5 251.56087173387562" stroke="#323232" stroke-width="2" fill="none" marker-end="url(#SvgjsMarker1170)"></path></g><g id="SvgjsG1172"><path id="SvgjsPath1173" d="M502.5 323.2089552238806L502.5 338.38491347887805L502.5 338.38491347887805L502.5 353.5608717338755" stroke="#323232" stroke-width="2" fill="none" marker-end="url(#SvgjsMarker1174)"></path></g><g id="SvgjsG1176" transform="translate(640.1564699966477,25)"><path id="SvgjsPath1177" d="M 11.81977004437964 0L 74.86728996232503 0C 90.62698335483121 0 90.62698335483121 35.45931013313892 74.86728996232503 35.45931013313892L 11.81977004437964 35.45931013313892C -3.9399233481265465 35.45931013313892 -3.9399233481265465 0 11.81977004437964 0Z" stroke="rgba(50,50,50,1)" stroke-width="2" fill-opacity="1" fill="#ffffff"></path><g id="SvgjsG1178"><text id="SvgjsText1179" font-family="微软雅黑" text-anchor="middle" font-size="14px" width="28" fill="#323232" font-weight="400" align="middle" anchor="middle" family="微软雅黑" size="14px" weight="400" font-style="" opacity="1" y="6.629655066569461" transform="rotate(0)"><tspan id="SvgjsTspan1180" dy="17" x="43.5"><tspan id="SvgjsTspan1181" style="text-decoration:;">开始</tspan></tspan></text></g></g><g id="SvgjsG1182" transform="translate(608,93.07849249894487)"><path id="SvgjsPath1183" d="M 0 0L 151 0L 151 54.61284195986647L 0 54.61284195986647Z" stroke="rgba(50,50,50,1)" stroke-width="2" fill-opacity="1" fill="#ffffff"></path><g id="SvgjsG1184"><text id="SvgjsText1185" font-family="微软雅黑" text-anchor="middle" font-size="14px" width="120" fill="#323232" font-weight="400" align="middle" anchor="middle" family="微软雅黑" size="14px" weight="400" font-style="" opacity="1" y="7.206420979933236" transform="rotate(0)"><tspan id="SvgjsTspan1186" dy="17" x="75.5"><tspan id="SvgjsTspan1187" style="text-decoration:;">转换位数送CL&lt;/br&gt;</tspan></tspan><tspan id="SvgjsTspan1188" dy="17" x="75.5"><tspan id="SvgjsTspan1189" style="text-decoration:;">存ASCII码地址送DI</tspan></tspan></text></g></g><g id="SvgjsG1190" transform="translate(640.1564699966477,407.00000000000006)"><path id="SvgjsPath1191" d="M 11.81977004437964 0L 74.86728996232503 0C 90.62698335483121 0 90.62698335483121 35.45931013313892 74.86728996232503 35.45931013313892L 11.81977004437964 35.45931013313892C -3.9399233481265465 35.45931013313892 -3.9399233481265465 0 11.81977004437964 0Z" stroke="rgba(50,50,50,1)" stroke-width="2" fill-opacity="1" fill="#ffffff"></path><g id="SvgjsG1192"><text id="SvgjsText1193" font-family="微软雅黑" text-anchor="middle" font-size="14px" width="28" fill="#323232" font-weight="400" align="middle" anchor="middle" family="微软雅黑" size="14px" weight="400" font-style="" opacity="1" y="6.629655066569461" transform="rotate(0)"><tspan id="SvgjsTspan1194" dy="17" x="43.5"><tspan id="SvgjsTspan1195" style="text-decoration:;">结束</tspan></tspan></text></g></g><g id="SvgjsG1196"><path id="SvgjsPath1197" d="M683.5000000000001 60.45931013313893L683.5000000000001 76.7689013160419L683.5 76.7689013160419L683.5 93.07849249894487" stroke="#323232" stroke-width="2" fill="none" marker-end="url(#SvgjsMarker1198)"></path></g><g id="SvgjsG1200" transform="translate(254.57823499832386,284.5406898668611)"><path id="SvgjsPath1201" d="M 0 24.5L 67.92176500167616 0L 135.84353000335233 24.5L 67.92176500167616 49L 0 24.5Z" stroke="rgba(50,50,50,1)" stroke-width="2" fill-opacity="1" fill="#ffffff"></path><g id="SvgjsG1202"><text id="SvgjsText1203" font-family="微软雅黑" text-anchor="middle" font-size="14px" width="39" fill="#323232" font-weight="400" align="middle" anchor="middle" family="微软雅黑" size="14px" weight="400" font-style="" opacity="1" y="13.4" transform="rotate(0)"><tspan id="SvgjsTspan1204" dy="17" x="68"><tspan id="SvgjsTspan1205" style="text-decoration:;">LOOP</tspan></tspan></text></g></g><g id="SvgjsG1206"><path id="SvgjsPath1207" d="M322.5 333.5406898668611L322.5 352.54068986686116L322.5 352.54068986686116L322.5 371.54068986686116" stroke="#323232" stroke-width="2" fill="none" marker-end="url(#SvgjsMarker1208)"></path></g><g id="SvgjsG1210"><path id="SvgjsPath1211" d="M254.57823499832386 309.0406898668611L224.57823499832386 309.0406898668611L224.57823499832386 238.54477611940302L256.61783439490443 238.54477611940302" stroke="#323232" stroke-width="2" fill="none" marker-end="url(#SvgjsMarker1212)"></path></g><g id="SvgjsG1214"><path id="SvgjsPath1215" d="M322.5 259.23880597014926L322.5 271.8897479185052L322.5 271.8897479185052L322.5 284.5406898668611" stroke="#323232" stroke-width="2" fill="none" marker-end="url(#SvgjsMarker1216)"></path></g><g id="SvgjsG1218" transform="translate(200.57823499832386,305)"><path id="SvgjsPath1219" d="M 0 0L 54 0L 54 32L 0 32Z" stroke="none" fill="none"></path><g id="SvgjsG1220"><text id="SvgjsText1221" font-family="微软雅黑" text-anchor="middle" font-size="14px" width="42" fill="#323232" font-weight="400" align="middle" anchor="middle" family="微软雅黑" size="14px" weight="400" font-style="" opacity="1" y="4.9" transform="rotate(0)"><tspan id="SvgjsTspan1222" dy="17" x="27"><tspan id="SvgjsTspan1223" style="text-decoration:;">未完成</tspan></tspan></text></g></g><g id="SvgjsG1224" transform="translate(322.57823499832386,330)"><path id="SvgjsPath1225" d="M 0 0L 54 0L 54 32L 0 32Z" stroke="none" fill="none"></path><g id="SvgjsG1226"><text id="SvgjsText1227" font-family="微软雅黑" text-anchor="middle" font-size="14px" width="28" fill="#323232" font-weight="400" align="middle" anchor="middle" family="微软雅黑" size="14px" weight="400" font-style="" opacity="1" y="4.9" transform="rotate(0)"><tspan id="SvgjsTspan1228" dy="17" x="27"><tspan id="SvgjsTspan1229" style="text-decoration:;">完成</tspan></tspan></text></g></g><g id="SvgjsG1230" transform="translate(595.2500000000001,178.49370755477113)"><path id="SvgjsPath1231" d="M 0 0L 176.49999999999977 0L 176.49999999999977 52L 0 52Z" stroke="rgba(50,50,50,1)" stroke-width="2" fill-opacity="1" fill="#ffffff"></path><g id="SvgjsG1232"><text id="SvgjsText1233" font-family="微软雅黑" text-anchor="middle" font-size="14px" width="126" fill="#323232" font-weight="400" align="middle" anchor="middle" family="微软雅黑" size="14px" weight="400" font-style="" opacity="1" y="-3.1" transform="rotate(0)"><tspan id="SvgjsTspan1234" dy="17" x="88.5"><tspan id="SvgjsTspan1235" style="text-decoration:;">数据的最高位数字送</tspan></tspan><tspan id="SvgjsTspan1236" dy="17" x="88.5"><tspan id="SvgjsTspan1237" style="text-decoration:;">AL&lt;/br&gt;AL&lt;-AL+30H </tspan></tspan><tspan id="SvgjsTspan1238" dy="17" x="88.5"><tspan id="SvgjsTspan1239" style="text-decoration:;">(ASCII码)</tspan></tspan></text></g></g><g id="SvgjsG1240"><path id="SvgjsPath1241" d="M683.5 147.69133445881135L683.5 163.09252100679123L683.4999999999999 163.09252100679123L683.4999999999999 178.49370755477113" stroke="#323232" stroke-width="2" fill="none" marker-end="url(#SvgjsMarker1242)"></path></g><g id="SvgjsG1244" transform="translate(599.5000000000002,259.23880597014926)"><path id="SvgjsPath1245" d="M 0 0L 167.99999999999977 0L 167.99999999999977 51.70391934926906L 0 51.70391934926906Z" stroke="rgba(50,50,50,1)" stroke-width="2" fill-opacity="1" fill="#ffffff"></path><g id="SvgjsG1246"><text id="SvgjsText1247" font-family="微软雅黑" text-anchor="middle" font-size="14px" width="135" fill="#323232" font-weight="400" align="middle" anchor="middle" family="微软雅黑" size="14px" weight="400" font-style="" opacity="1" y="-3.2480403253654715" transform="rotate(0)"><tspan id="SvgjsTspan1248" dy="17" x="84"><tspan id="SvgjsTspan1249" style="text-decoration:;">[DI]&lt;-AL (存ASCII码)</tspan></tspan><tspan id="SvgjsTspan1250" dy="17" x="84"><tspan id="SvgjsTspan1251" style="text-decoration:;">&lt;/br&gt;DI&lt;-DI+1 (修改</tspan></tspan><tspan id="SvgjsTspan1252" dy="17" x="84"><tspan id="SvgjsTspan1253" style="text-decoration:;">指针)</tspan></tspan></text></g></g><g id="SvgjsG1254" transform="translate(615.0135778479239,337)"><path id="SvgjsPath1255" d="M 0 21.735834856467076L 68.48642215207614 0L 136.9728443041523 21.735834856467076L 68.48642215207614 43.47166971293415L 0 21.735834856467076Z" stroke="rgba(50,50,50,1)" stroke-width="2" fill-opacity="1" fill="#ffffff"></path><g id="SvgjsG1256"><text id="SvgjsText1257" font-family="微软雅黑" text-anchor="middle" font-size="14px" width="39" fill="#323232" font-weight="400" align="middle" anchor="middle" family="微软雅黑" size="14px" weight="400" font-style="" opacity="1" y="10.635834856467076" transform="rotate(0)"><tspan id="SvgjsTspan1258" dy="17" x="68.5"><tspan id="SvgjsTspan1259" style="text-decoration:;">LOOP</tspan></tspan></text></g></g><g id="SvgjsG1260" transform="translate(754.5782349983239,358.2988766280987)"><path id="SvgjsPath1261" d="M 0 0L 54.44892069752378 0L 54.44892069752378 28.38966185334475L 0 28.38966185334475Z" stroke="none" fill="none"></path><g id="SvgjsG1262"><text id="SvgjsText1263" font-family="微软雅黑" text-anchor="middle" font-size="14px" width="42" fill="#323232" font-weight="400" align="middle" anchor="middle" family="微软雅黑" size="14px" weight="400" font-style="" opacity="1" y="3.0948309266723757" transform="rotate(0)"><tspan id="SvgjsTspan1264" dy="17" x="27.5"><tspan id="SvgjsTspan1265" style="text-decoration:;">未完成</tspan></tspan></text></g></g><g id="SvgjsG1266"><path id="SvgjsPath1267" d="M751.9864221520762 358.7358348564671L801.7499999999999 358.7358348564671L801.7499999999999 204.49370755477113L771.7499999999999 204.49370755477113" stroke="#323232" stroke-width="2" fill="none" marker-end="url(#SvgjsMarker1268)"></path></g><g id="SvgjsG1270"><path id="SvgjsPath1271" d="M683.5000000000001 310.9427253194183L683.5000000000001 323.97136265970914L683.5 323.97136265970914L683.5 337" stroke="#323232" stroke-width="2" fill="none" marker-end="url(#SvgjsMarker1272)"></path></g><g id="SvgjsG1274"><path id="SvgjsPath1275" d="M683.5 380.47166971293416L683.5 393.73583485646714L683.5000000000001 393.73583485646714L683.5000000000001 407.00000000000006" stroke="#323232" stroke-width="2" fill="none" marker-end="url(#SvgjsMarker1276)"></path></g><g id="SvgjsG1278" transform="translate(682.5782349983239,370)"><path id="SvgjsPath1279" d="M 0 0L 54 0L 54 32L 0 32Z" stroke="none" fill="none"></path><g id="SvgjsG1280"><text id="SvgjsText1281" font-family="微软雅黑" text-anchor="middle" font-size="14px" width="28" fill="#323232" font-weight="400" align="middle" anchor="middle" family="微软雅黑" size="14px" weight="400" font-style="" opacity="1" y="4.9" transform="rotate(0)"><tspan id="SvgjsTspan1282" dy="17" x="27"><tspan id="SvgjsTspan1283" style="text-decoration:;">完成</tspan></tspan></text></g></g><g id="SvgjsG1284"><path id="SvgjsPath1285" d="M683.5 230.49370755477113L683.5 244.86625676246018L683.5000000000001 244.86625676246018L683.5000000000001 259.23880597014926" stroke="#323232" stroke-width="2" fill="none" marker-end="url(#SvgjsMarker1286)"></path></g></svg>