<svg id="SvgjsSvg1006" width="721.6875" height="479" xmlns="http://www.w3.org/2000/svg" version="1.1" xmlns:xlink="http://www.w3.org/1999/xlink" xmlns:svgjs="http://svgjs.com/svgjs"><defs id="SvgjsDefs1007"><marker id="SvgjsMarker1048" markerWidth="16" markerHeight="12" refX="16" refY="6" viewBox="0 0 16 12" orient="auto" markerUnits="userSpaceOnUse"><path id="SvgjsPath1049" d="M0,2 L14,6 L0,11 L0,2" fill="#323232" stroke="#323232" stroke-width="2"></path></marker><marker id="SvgjsMarker1052" markerWidth="16" markerHeight="12" refX="16" refY="6" viewBox="0 0 16 12" orient="auto" markerUnits="userSpaceOnUse"><path id="SvgjsPath1053" d="M0,2 L14,6 L0,11 L0,2" fill="#323232" stroke="#323232" stroke-width="2"></path></marker><marker id="SvgjsMarker1056" markerWidth="16" markerHeight="12" refX="16" refY="6" viewBox="0 0 16 12" orient="auto" markerUnits="userSpaceOnUse"><path id="SvgjsPath1057" d="M0,2 L14,6 L0,11 L0,2" fill="#323232" stroke="#323232" stroke-width="2"></path></marker><marker id="SvgjsMarker1060" markerWidth="16" markerHeight="12" refX="16" refY="6" viewBox="0 0 16 12" orient="auto" markerUnits="userSpaceOnUse"><path id="SvgjsPath1061" d="M0,2 L14,6 L0,11 L0,2" fill="#323232" stroke="#323232" stroke-width="2"></path></marker><marker id="SvgjsMarker1064" markerWidth="16" markerHeight="12" refX="16" refY="6" viewBox="0 0 16 12" orient="auto" markerUnits="userSpaceOnUse"><path id="SvgjsPath1065" d="M0,2 L14,6 L0,11 L0,2" fill="#323232" stroke="#323232" stroke-width="2"></path></marker><marker id="SvgjsMarker1068" markerWidth="16" markerHeight="12" refX="16" refY="6" viewBox="0 0 16 12" orient="auto" markerUnits="userSpaceOnUse"><path id="SvgjsPath1069" d="M0,2 L14,6 L0,11 L0,2" fill="#323232" stroke="#323232" stroke-width="2"></path></marker><marker id="SvgjsMarker1090" markerWidth="16" markerHeight="12" refX="16" refY="6" viewBox="0 0 16 12" orient="auto" markerUnits="userSpaceOnUse"><path id="SvgjsPath1091" d="M0,2 L14,6 L0,11 L0,2" fill="#323232" stroke="#323232" stroke-width="2"></path></marker><marker id="SvgjsMarker1094" markerWidth="16" markerHeight="12" refX="16" refY="6" viewBox="0 0 16 12" orient="auto" markerUnits="userSpaceOnUse"><path id="SvgjsPath1095" d="M0,2 L14,6 L0,11 L0,2" fill="#323232" stroke="#323232" stroke-width="2"></path></marker><marker id="SvgjsMarker1104" markerWidth="16" markerHeight="12" refX="16" refY="6" viewBox="0 0 16 12" orient="auto" markerUnits="userSpaceOnUse"><path id="SvgjsPath1105" d="M0,2 L14,6 L0,11 L0,2" fill="#323232" stroke="#323232" stroke-width="2"></path></marker><marker id="SvgjsMarker1126" markerWidth="16" markerHeight="12" refX="16" refY="6" viewBox="0 0 16 12" orient="auto" markerUnits="userSpaceOnUse"><path id="SvgjsPath1127" d="M0,2 L14,6 L0,11 L0,2" fill="#323232" stroke="#323232" stroke-width="2"></path></marker><marker id="SvgjsMarker1130" markerWidth="16" markerHeight="12" refX="16" refY="6" viewBox="0 0 16 12" orient="auto" markerUnits="userSpaceOnUse"><path id="SvgjsPath1131" d="M0,2 L14,6 L0,11 L0,2" fill="#323232" stroke="#323232" stroke-width="2"></path></marker><marker id="SvgjsMarker1152" markerWidth="16" markerHeight="12" refX="16" refY="6" viewBox="0 0 16 12" orient="auto" markerUnits="userSpaceOnUse"><path id="SvgjsPath1153" d="M0,2 L14,6 L0,11 L0,2" fill="#323232" stroke="#323232" stroke-width="2"></path></marker><marker id="SvgjsMarker1156" markerWidth="16" markerHeight="12" refX="16" refY="6" viewBox="0 0 16 12" orient="auto" markerUnits="userSpaceOnUse"><path id="SvgjsPath1157" d="M0,2 L14,6 L0,11 L0,2" fill="#323232" stroke="#323232" stroke-width="2"></path></marker><marker id="SvgjsMarker1160" markerWidth="16" markerHeight="12" refX="16" refY="6" viewBox="0 0 16 12" orient="auto" markerUnits="userSpaceOnUse"><path id="SvgjsPath1161" d="M0,2 L14,6 L0,11 L0,2" fill="#323232" stroke="#323232" stroke-width="2"></path></marker><marker id="SvgjsMarker1176" markerWidth="16" markerHeight="12" refX="16" refY="6" viewBox="0 0 16 12" orient="auto" markerUnits="userSpaceOnUse"><path id="SvgjsPath1177" d="M0,2 L14,6 L0,11 L0,2" fill="#323232" stroke="#323232" stroke-width="2"></path></marker><marker id="SvgjsMarker1186" markerWidth="16" markerHeight="12" refX="16" refY="6" viewBox="0 0 16 12" orient="auto" markerUnits="userSpaceOnUse"><path id="SvgjsPath1187" d="M0,2 L14,6 L0,11 L0,2" fill="#323232" stroke="#323232" stroke-width="2"></path></marker><marker id="SvgjsMarker1190" markerWidth="16" markerHeight="12" refX="16" refY="6" viewBox="0 0 16 12" orient="auto" markerUnits="userSpaceOnUse"><path id="SvgjsPath1191" d="M0,2 L14,6 L0,11 L0,2" fill="#323232" stroke="#323232" stroke-width="2"></path></marker></defs><g id="SvgjsG1008" transform="translate(78.25,25)"><path id="SvgjsPath1009" d="M 9.666666666666666 0L 59.333333333333336 0C 72.22222222222223 0 72.22222222222223 29 59.333333333333336 29L 9.666666666666666 29C -3.222222222222222 29 -3.222222222222222 0 9.666666666666666 0Z" stroke="rgba(50,50,50,1)" stroke-width="2" fill-opacity="1" fill="#ffffff"></path><g id="SvgjsG1010"><text id="SvgjsText1011" font-family="微软雅黑" text-anchor="middle" font-size="14px" width="28" fill="#323232" font-weight="400" align="middle" anchor="middle" family="微软雅黑" size="14px" weight="400" font-style="" opacity="1" y="3.4" transform="rotate(0)"><tspan id="SvgjsTspan1012" dy="17" x="34.5"><tspan id="SvgjsTspan1013" style="text-decoration:;">开始</tspan></tspan></text></g></g><g id="SvgjsG1014" transform="translate(58.75,76)"><path id="SvgjsPath1015" d="M 0 0L 108 0L 108 32L 0 32Z" stroke="rgba(50,50,50,1)" stroke-width="2" fill-opacity="1" fill="#ffffff"></path><g id="SvgjsG1016"><text id="SvgjsText1017" font-family="微软雅黑" text-anchor="middle" font-size="13px" width="65" fill="#323232" font-weight="400" align="middle" anchor="middle" family="微软雅黑" size="13px" weight="400" font-style="" opacity="1" y="6.05" transform="rotate(0)"><tspan id="SvgjsTspan1018" dy="16" x="54"><tspan id="SvgjsTspan1019" style="text-decoration:;">写中断向量</tspan></tspan></text></g></g><g id="SvgjsG1020" transform="translate(58.75,133)"><path id="SvgjsPath1021" d="M 0 0L 108 0L 108 32L 0 32Z" stroke="rgba(50,50,50,1)" stroke-width="2" fill-opacity="1" fill="#ffffff"></path><g id="SvgjsG1022"><text id="SvgjsText1023" font-family="微软雅黑" text-anchor="middle" font-size="13px" width="70" fill="#323232" font-weight="400" align="middle" anchor="middle" family="微软雅黑" size="13px" weight="400" font-style="" opacity="1" y="6.05" transform="rotate(0)"><tspan id="SvgjsTspan1024" dy="16" x="54"><tspan id="SvgjsTspan1025" style="text-decoration:;">初始化8253</tspan></tspan></text></g></g><g id="SvgjsG1026" transform="translate(25,191)"><path id="SvgjsPath1027" d="M 0 0L 175.5 0L 175.5 37L 0 37Z" stroke="rgba(50,50,50,1)" stroke-width="2" fill-opacity="1" fill="#ffffff"></path><g id="SvgjsG1028"><text id="SvgjsText1029" font-family="微软雅黑" text-anchor="middle" font-size="13px" width="154" fill="#323232" font-weight="400" align="middle" anchor="middle" family="微软雅黑" size="13px" weight="400" font-style="" opacity="1" y="0.55" transform="rotate(0)"><tspan id="SvgjsTspan1030" dy="16" x="88"><tspan id="SvgjsTspan1031" style="text-decoration:;">初始化8255&lt;/br&gt;</tspan></tspan><tspan id="SvgjsTspan1032" dy="16" x="88"><tspan id="SvgjsTspan1033" style="text-decoration:;">(PC0=1，东西红，南北绿)</tspan></tspan></text></g></g><g id="SvgjsG1034" transform="translate(58.75,252)"><path id="SvgjsPath1035" d="M 0 0L 108 0L 108 32L 0 32Z" stroke="rgba(50,50,50,1)" stroke-width="2" fill-opacity="1" fill="#ffffff"></path><g id="SvgjsG1036"><text id="SvgjsText1037" font-family="微软雅黑" text-anchor="middle" font-size="13px" width="70" fill="#323232" font-weight="400" align="middle" anchor="middle" family="微软雅黑" size="13px" weight="400" font-style="" opacity="1" y="6.05" transform="rotate(0)"><tspan id="SvgjsTspan1038" dy="16" x="54"><tspan id="SvgjsTspan1039" style="text-decoration:;">初始化8259</tspan></tspan></text></g></g><g id="SvgjsG1040" transform="translate(58.75,309)"><path id="SvgjsPath1041" d="M 0 0L 108 0L 108 32L 0 32Z" stroke="rgba(50,50,50,1)" stroke-width="2" fill-opacity="1" fill="#ffffff"></path><g id="SvgjsG1042"><text id="SvgjsText1043" font-family="微软雅黑" text-anchor="middle" font-size="13px" width="65" fill="#323232" font-weight="400" align="middle" anchor="middle" family="微软雅黑" size="13px" weight="400" font-style="" opacity="1" y="6.05" transform="rotate(0)"><tspan id="SvgjsTspan1044" dy="16" x="54"><tspan id="SvgjsTspan1045" style="text-decoration:;">显示子程序</tspan></tspan></text></g></g><g id="SvgjsG1046"><path id="SvgjsPath1047" d="M112.75 54L112.75 65L112.75 65L112.75 76" stroke="#323232" stroke-width="2" fill="none" marker-end="url(#SvgjsMarker1048)"></path></g><g id="SvgjsG1050"><path id="SvgjsPath1051" d="M112.75 108L112.75 120.5L112.75 120.5L112.75 133" stroke="#323232" stroke-width="2" fill="none" marker-end="url(#SvgjsMarker1052)"></path></g><g id="SvgjsG1054"><path id="SvgjsPath1055" d="M112.75 165L112.75 178L112.75 178L112.75 191" stroke="#323232" stroke-width="2" fill="none" marker-end="url(#SvgjsMarker1056)"></path></g><g id="SvgjsG1058"><path id="SvgjsPath1059" d="M112.75 228L112.75 240L112.75 240L112.75 252" stroke="#323232" stroke-width="2" fill="none" marker-end="url(#SvgjsMarker1060)"></path></g><g id="SvgjsG1062"><path id="SvgjsPath1063" d="M112.75 284L112.75 296.5L112.75 296.5L112.75 309" stroke="#323232" stroke-width="2" fill="none" marker-end="url(#SvgjsMarker1064)"></path></g><g id="SvgjsG1066"><path id="SvgjsPath1067" d="M112.75 341L112.75 371L28.75 371L28.75 325L58.75 325" stroke="#323232" stroke-width="2" fill="none" marker-end="url(#SvgjsMarker1068)"></path></g><g id="SvgjsG1070" transform="translate(379.25,25)"><path id="SvgjsPath1071" d="M 9.666666666666666 0L 59.333333333333336 0C 72.22222222222223 0 72.22222222222223 29 59.333333333333336 29L 9.666666666666666 29C -3.222222222222222 29 -3.222222222222222 0 9.666666666666666 0Z" stroke="rgba(50,50,50,1)" stroke-width="2" fill-opacity="1" fill="#ffffff"></path><g id="SvgjsG1072"><text id="SvgjsText1073" font-family="微软雅黑" text-anchor="middle" font-size="14px" width="28" fill="#323232" font-weight="400" align="middle" anchor="middle" family="微软雅黑" size="14px" weight="400" font-style="" opacity="1" y="3.4" transform="rotate(0)"><tspan id="SvgjsTspan1074" dy="17" x="34.5"><tspan id="SvgjsTspan1075" style="text-decoration:;">开始</tspan></tspan></text></g></g><g id="SvgjsG1076" transform="translate(342.5,141)"><path id="SvgjsPath1077" d="M 0 21.5L 71.25 0L 142.5 21.5L 71.25 43L 0 21.5Z" stroke="rgba(50,50,50,1)" stroke-width="2" fill-opacity="1" fill="#ffffff"></path><g id="SvgjsG1078"><text id="SvgjsText1079" font-family="微软雅黑" text-anchor="middle" font-size="13px" width="86" fill="#323232" font-weight="400" align="middle" anchor="middle" family="微软雅黑" size="13px" weight="400" font-style="" opacity="1" y="11.55" transform="rotate(0)"><tspan id="SvgjsTspan1080" dy="16" x="71.5"><tspan id="SvgjsTspan1081" style="text-decoration:;">剩余时间为0？</tspan></tspan></text></g></g><g id="SvgjsG1082" transform="translate(359.75,81)"><path id="SvgjsPath1083" d="M 0 0L 108 0L 108 32L 0 32Z" stroke="rgba(50,50,50,1)" stroke-width="2" fill-opacity="1" fill="#ffffff"></path><g id="SvgjsG1084"><text id="SvgjsText1085" font-family="微软雅黑" text-anchor="middle" font-size="13px" width="65" fill="#323232" font-weight="400" align="middle" anchor="middle" family="微软雅黑" size="13px" weight="400" font-style="" opacity="1" y="6.05" transform="rotate(0)"><tspan id="SvgjsTspan1086" dy="16" x="54"><tspan id="SvgjsTspan1087" style="text-decoration:;">更新缓冲区</tspan></tspan></text></g></g><g id="SvgjsG1088"><path id="SvgjsPath1089" d="M413.75 113L413.75 127L413.75 127L413.75 141" stroke="#323232" stroke-width="2" fill="none" marker-end="url(#SvgjsMarker1090)"></path></g><g id="SvgjsG1092"><path id="SvgjsPath1093" d="M413.75 54L413.75 67.5L413.75 67.5L413.75 81" stroke="#323232" stroke-width="2" fill="none" marker-end="url(#SvgjsMarker1094)"></path></g><g id="SvgjsG1096" transform="translate(359.75,213)"><path id="SvgjsPath1097" d="M 0 0L 108 0L 108 32L 0 32Z" stroke="rgba(50,50,50,1)" stroke-width="2" fill-opacity="1" fill="#ffffff"></path><g id="SvgjsG1098"><text id="SvgjsText1099" font-family="微软雅黑" text-anchor="middle" font-size="13px" width="42" fill="#323232" font-weight="400" align="middle" anchor="middle" family="微软雅黑" size="13px" weight="400" font-style="" opacity="1" y="6.05" transform="rotate(0)"><tspan id="SvgjsTspan1100" dy="16" x="54"><tspan id="SvgjsTspan1101" style="text-decoration:;">PC0=0</tspan></tspan></text></g></g><g id="SvgjsG1102"><path id="SvgjsPath1103" d="M413.75 184L413.75 198.5L413.75 198.5L413.75 213" stroke="#323232" stroke-width="2" fill="none" marker-end="url(#SvgjsMarker1104)"></path></g><g id="SvgjsG1106" transform="translate(414.25,179)"><path id="SvgjsPath1107" d="M 0 0L 38 0L 38 34L 0 34Z" stroke="none" fill="none"></path><g id="SvgjsG1108"><text id="SvgjsText1109" font-family="微软雅黑" text-anchor="middle" font-size="13px" width="13" fill="#323232" font-weight="400" align="middle" anchor="middle" family="微软雅黑" size="13px" weight="400" font-style="" opacity="1" y="7.05" transform="rotate(0)"><tspan id="SvgjsTspan1110" dy="16" x="19"><tspan id="SvgjsTspan1111" style="text-decoration:;">是</tspan></tspan></text></g></g><g id="SvgjsG1112" transform="translate(359.75,273)"><path id="SvgjsPath1113" d="M 0 0L 108 0L 108 32L 0 32Z" stroke="rgba(50,50,50,1)" stroke-width="2" fill-opacity="1" fill="#ffffff"></path><g id="SvgjsG1114"><text id="SvgjsText1115" font-family="微软雅黑" text-anchor="middle" font-size="13px" width="65" fill="#323232" font-weight="400" align="middle" anchor="middle" family="微软雅黑" size="13px" weight="400" font-style="" opacity="1" y="6.05" transform="rotate(0)"><tspan id="SvgjsTspan1116" dy="16" x="54"><tspan id="SvgjsTspan1117" style="text-decoration:;">闪烁子程序</tspan></tspan></text></g></g><g id="SvgjsG1118" transform="translate(342.875,333)"><path id="SvgjsPath1119" d="M 0 0L 141.75 0L 141.75 32L 0 32Z" stroke="rgba(50,50,50,1)" stroke-width="2" fill-opacity="1" fill="#ffffff"></path><g id="SvgjsG1120"><text id="SvgjsText1121" font-family="微软雅黑" text-anchor="middle" font-size="13px" width="121" fill="#323232" font-weight="400" align="middle" anchor="middle" family="微软雅黑" size="13px" weight="400" font-style="" opacity="1" y="6.05" transform="rotate(0)"><tspan id="SvgjsTspan1122" dy="16" x="71"><tspan id="SvgjsTspan1123" style="text-decoration:;">红绿反向，TIME=10</tspan></tspan></text></g></g><g id="SvgjsG1124"><path id="SvgjsPath1125" d="M413.75 245L413.75 259L413.75 259L413.75 273" stroke="#323232" stroke-width="2" fill="none" marker-end="url(#SvgjsMarker1126)"></path></g><g id="SvgjsG1128"><path id="SvgjsPath1129" d="M413.75 305L413.75 319L413.75 319L413.75 333" stroke="#323232" stroke-width="2" fill="none" marker-end="url(#SvgjsMarker1130)"></path></g><g id="SvgjsG1132" transform="translate(577.6875,210)"><path id="SvgjsPath1133" d="M 0 0L 118.125 0L 118.125 28L 0 28Z" stroke="rgba(50,50,50,1)" stroke-width="2" fill-opacity="1" fill="#ffffff"></path><g id="SvgjsG1134"><text id="SvgjsText1135" font-family="微软雅黑" text-anchor="middle" font-size="13px" width="65" fill="#323232" font-weight="400" align="middle" anchor="middle" family="微软雅黑" size="13px" weight="400" font-style="" opacity="1" y="4.05" transform="rotate(0)"><tspan id="SvgjsTspan1136" dy="16" x="59.5"><tspan id="SvgjsTspan1137" style="text-decoration:;">显示子程序</tspan></tspan></text></g></g><g id="SvgjsG1138" transform="translate(583.375,265)"><path id="SvgjsPath1139" d="M 0 0L 106.75 0L 106.75 24L 0 24Z" stroke="rgba(50,50,50,1)" stroke-width="2" fill-opacity="1" fill="#ffffff"></path><g id="SvgjsG1140"><text id="SvgjsText1141" font-family="微软雅黑" text-anchor="middle" font-size="13px" width="74" fill="#323232" font-weight="400" align="middle" anchor="middle" family="微软雅黑" size="13px" weight="400" font-style="" opacity="1" y="2.05" transform="rotate(0)"><tspan id="SvgjsTspan1142" dy="16" x="53.5"><tspan id="SvgjsTspan1143" style="text-decoration:;">一般EOI命令</tspan></tspan></text></g></g><g id="SvgjsG1144" transform="translate(594.75,314)"><path id="SvgjsPath1145" d="M 0 0L 84 0L 84 28L 0 28Z" stroke="rgba(50,50,50,1)" stroke-width="2" fill-opacity="1" fill="#ffffff"></path><g id="SvgjsG1146"><text id="SvgjsText1147" font-family="微软雅黑" text-anchor="middle" font-size="13px" width="19" fill="#323232" font-weight="400" align="middle" anchor="middle" family="微软雅黑" size="13px" weight="400" font-style="" opacity="1" y="4.05" transform="rotate(0)"><tspan id="SvgjsTspan1148" dy="16" x="42"><tspan id="SvgjsTspan1149" style="text-decoration:;">STI</tspan></tspan></text></g></g><g id="SvgjsG1150"><path id="SvgjsPath1151" d="M636.75 238L636.75 251.5L636.75 251.5L636.75 265" stroke="#323232" stroke-width="2" fill="none" marker-end="url(#SvgjsMarker1152)"></path></g><g id="SvgjsG1154"><path id="SvgjsPath1155" d="M636.75 289L636.75 301.5L636.75 301.5L636.75 314" stroke="#323232" stroke-width="2" fill="none" marker-end="url(#SvgjsMarker1156)"></path></g><g id="SvgjsG1158"><path id="SvgjsPath1159" d="M636.75 342L636.75 355L636.75 355L636.75 368" stroke="#323232" stroke-width="2" fill="none" marker-end="url(#SvgjsMarker1160)"></path></g><g id="SvgjsG1162" transform="translate(600.25,368)"><path id="SvgjsPath1163" d="M 9.666666666666666 0L 63.333333333333336 0C 76.22222222222223 0 76.22222222222223 29 63.333333333333336 29L 9.666666666666666 29C -3.222222222222222 29 -3.222222222222222 0 9.666666666666666 0Z" stroke="rgba(50,50,50,1)" stroke-width="2" fill-opacity="1" fill="#ffffff"></path><g id="SvgjsG1164"><text id="SvgjsText1165" font-family="微软雅黑" text-anchor="middle" font-size="14px" width="29" fill="#323232" font-weight="400" align="middle" anchor="middle" family="微软雅黑" size="14px" weight="400" font-style="" opacity="1" y="3.4" transform="rotate(0)"><tspan id="SvgjsTspan1166" dy="17" x="36.5"><tspan id="SvgjsTspan1167" style="text-decoration:;">IRET</tspan></tspan></text></g></g><g id="SvgjsG1168" transform="translate(478.25,132)"><path id="SvgjsPath1169" d="M 0 0L 38 0L 38 34L 0 34Z" stroke="none" fill="none"></path><g id="SvgjsG1170"><text id="SvgjsText1171" font-family="微软雅黑" text-anchor="middle" font-size="13px" width="13" fill="#323232" font-weight="400" align="middle" anchor="middle" family="微软雅黑" size="13px" weight="400" font-style="" opacity="1" y="7.05" transform="rotate(0)"><tspan id="SvgjsTspan1172" dy="16" x="19"><tspan id="SvgjsTspan1173" style="text-decoration:;">否</tspan></tspan></text></g></g><g id="SvgjsG1174"><path id="SvgjsPath1175" d="M485 162.5L636.75 162.5L636.75 210" stroke="#323232" stroke-width="2" fill="none" marker-end="url(#SvgjsMarker1176)"></path></g><g id="SvgjsG1178" transform="translate(359.75,392)"><path id="SvgjsPath1179" d="M 0 0L 108 0L 108 32L 0 32Z" stroke="rgba(50,50,50,1)" stroke-width="2" fill-opacity="1" fill="#ffffff"></path><g id="SvgjsG1180"><text id="SvgjsText1181" font-family="微软雅黑" text-anchor="middle" font-size="13px" width="42" fill="#323232" font-weight="400" align="middle" anchor="middle" family="微软雅黑" size="13px" weight="400" font-style="" opacity="1" y="6.05" transform="rotate(0)"><tspan id="SvgjsTspan1182" dy="16" x="54"><tspan id="SvgjsTspan1183" style="text-decoration:;">PC0=1</tspan></tspan></text></g></g><g id="SvgjsG1184"><path id="SvgjsPath1185" d="M413.75 365L413.75 378.5L413.75 378.5L413.75 392" stroke="#323232" stroke-width="2" fill="none" marker-end="url(#SvgjsMarker1186)"></path></g><g id="SvgjsG1188"><path id="SvgjsPath1189" d="M413.75 424L413.75 454L522.71875 454L522.71875 180L636.75 180L636.75 210" stroke="#323232" stroke-width="2" fill="none" marker-end="url(#SvgjsMarker1190)"></path></g></svg>