<svg id="SvgjsSvg1006" width="777.5625" height="485" xmlns="http://www.w3.org/2000/svg" version="1.1" xmlns:xlink="http://www.w3.org/1999/xlink" xmlns:svgjs="http://svgjs.com/svgjs"><defs id="SvgjsDefs1007"><marker id="SvgjsMarker1046" markerWidth="16" markerHeight="12" refX="16" refY="6" viewBox="0 0 16 12" orient="auto" markerUnits="userSpaceOnUse"><path id="SvgjsPath1047" d="M0,2 L14,6 L0,11 L0,2" fill="#323232" stroke="#323232" stroke-width="2"></path></marker><marker id="SvgjsMarker1050" markerWidth="16" markerHeight="12" refX="16" refY="6" viewBox="0 0 16 12" orient="auto" markerUnits="userSpaceOnUse"><path id="SvgjsPath1051" d="M0,2 L14,6 L0,11 L0,2" fill="#323232" stroke="#323232" stroke-width="2"></path></marker><marker id="SvgjsMarker1054" markerWidth="16" markerHeight="12" refX="16" refY="6" viewBox="0 0 16 12" orient="auto" markerUnits="userSpaceOnUse"><path id="SvgjsPath1055" d="M0,2 L14,6 L0,11 L0,2" fill="#323232" stroke="#323232" stroke-width="2"></path></marker><marker id="SvgjsMarker1058" markerWidth="16" markerHeight="12" refX="16" refY="6" viewBox="0 0 16 12" orient="auto" markerUnits="userSpaceOnUse"><path id="SvgjsPath1059" d="M0,2 L14,6 L0,11 L0,2" fill="#323232" stroke="#323232" stroke-width="2"></path></marker><marker id="SvgjsMarker1062" markerWidth="16" markerHeight="12" refX="16" refY="6" viewBox="0 0 16 12" orient="auto" markerUnits="userSpaceOnUse"><path id="SvgjsPath1063" d="M0,2 L14,6 L0,11 L0,2" fill="#323232" stroke="#323232" stroke-width="2"></path></marker><marker id="SvgjsMarker1072" markerWidth="16" markerHeight="12" refX="16" refY="6" viewBox="0 0 16 12" orient="auto" markerUnits="userSpaceOnUse"><path id="SvgjsPath1073" d="M0,2 L14,6 L0,11 L0,2" fill="#323232" stroke="#323232" stroke-width="2"></path></marker><marker id="SvgjsMarker1076" markerWidth="16" markerHeight="12" refX="16" refY="6" viewBox="0 0 16 12" orient="auto" markerUnits="userSpaceOnUse"><path id="SvgjsPath1077" d="M0,2 L14,6 L0,11 L0,2" fill="#323232" stroke="#323232" stroke-width="2"></path></marker><marker id="SvgjsMarker1110" markerWidth="16" markerHeight="12" refX="16" refY="6" viewBox="0 0 16 12" orient="auto" markerUnits="userSpaceOnUse"><path id="SvgjsPath1111" d="M0,2 L14,6 L0,11 L0,2" fill="#323232" stroke="#323232" stroke-width="2"></path></marker><marker id="SvgjsMarker1114" markerWidth="16" markerHeight="12" refX="16" refY="6" viewBox="0 0 16 12" orient="auto" markerUnits="userSpaceOnUse"><path id="SvgjsPath1115" d="M0,2 L14,6 L0,11 L0,2" fill="#323232" stroke="#323232" stroke-width="2"></path></marker><marker id="SvgjsMarker1118" markerWidth="16" markerHeight="12" refX="16" refY="6" viewBox="0 0 16 12" orient="auto" markerUnits="userSpaceOnUse"><path id="SvgjsPath1119" d="M0,2 L14,6 L0,11 L0,2" fill="#323232" stroke="#323232" stroke-width="2"></path></marker><marker id="SvgjsMarker1122" markerWidth="16" markerHeight="12" refX="16" refY="6" viewBox="0 0 16 12" orient="auto" markerUnits="userSpaceOnUse"><path id="SvgjsPath1123" d="M0,2 L14,6 L0,11 L0,2" fill="#323232" stroke="#323232" stroke-width="2"></path></marker><marker id="SvgjsMarker1132" markerWidth="16" markerHeight="12" refX="16" refY="6" viewBox="0 0 16 12" orient="auto" markerUnits="userSpaceOnUse"><path id="SvgjsPath1133" d="M0,2 L14,6 L0,11 L0,2" fill="#323232" stroke="#323232" stroke-width="2"></path></marker><marker id="SvgjsMarker1136" markerWidth="16" markerHeight="12" refX="16" refY="6" viewBox="0 0 16 12" orient="auto" markerUnits="userSpaceOnUse"><path id="SvgjsPath1137" d="M0,2 L14,6 L0,11 L0,2" fill="#323232" stroke="#323232" stroke-width="2"></path></marker><marker id="SvgjsMarker1182" markerWidth="16" markerHeight="12" refX="16" refY="6" viewBox="0 0 16 12" orient="auto" markerUnits="userSpaceOnUse"><path id="SvgjsPath1183" d="M0,2 L14,6 L0,11 L0,2" fill="#323232" stroke="#323232" stroke-width="2"></path></marker><marker id="SvgjsMarker1186" markerWidth="16" markerHeight="12" refX="16" refY="6" viewBox="0 0 16 12" orient="auto" markerUnits="userSpaceOnUse"><path id="SvgjsPath1187" d="M0,2 L14,6 L0,11 L0,2" fill="#323232" stroke="#323232" stroke-width="2"></path></marker><marker id="SvgjsMarker1190" markerWidth="16" markerHeight="12" refX="16" refY="6" viewBox="0 0 16 12" orient="auto" markerUnits="userSpaceOnUse"><path id="SvgjsPath1191" d="M0,2 L14,6 L0,11 L0,2" fill="#323232" stroke="#323232" stroke-width="2"></path></marker><marker id="SvgjsMarker1194" markerWidth="16" markerHeight="12" refX="16" refY="6" viewBox="0 0 16 12" orient="auto" markerUnits="userSpaceOnUse"><path id="SvgjsPath1195" d="M0,2 L14,6 L0,11 L0,2" fill="#323232" stroke="#323232" stroke-width="2"></path></marker><marker id="SvgjsMarker1204" markerWidth="16" markerHeight="12" refX="16" refY="6" viewBox="0 0 16 12" orient="auto" markerUnits="userSpaceOnUse"><path id="SvgjsPath1205" d="M0,2 L14,6 L0,11 L0,2" fill="#323232" stroke="#323232" stroke-width="2"></path></marker><marker id="SvgjsMarker1208" markerWidth="16" markerHeight="12" refX="16" refY="6" viewBox="0 0 16 12" orient="auto" markerUnits="userSpaceOnUse"><path id="SvgjsPath1209" d="M0,2 L14,6 L0,11 L0,2" fill="#323232" stroke="#323232" stroke-width="2"></path></marker><marker id="SvgjsMarker1218" markerWidth="16" markerHeight="12" refX="16" refY="6" viewBox="0 0 16 12" orient="auto" markerUnits="userSpaceOnUse"><path id="SvgjsPath1219" d="M0,2 L14,6 L0,11 L0,2" fill="#323232" stroke="#323232" stroke-width="2"></path></marker><marker id="SvgjsMarker1222" markerWidth="16" markerHeight="12" refX="16" refY="6" viewBox="0 0 16 12" orient="auto" markerUnits="userSpaceOnUse"><path id="SvgjsPath1223" d="M0,2 L14,6 L0,11 L0,2" fill="#323232" stroke="#323232" stroke-width="2"></path></marker><marker id="SvgjsMarker1244" markerWidth="16" markerHeight="12" refX="16" refY="6" viewBox="0 0 16 12" orient="auto" markerUnits="userSpaceOnUse"><path id="SvgjsPath1245" d="M0,2 L14,6 L0,11 L0,2" fill="#323232" stroke="#323232" stroke-width="2"></path></marker><marker id="SvgjsMarker1248" markerWidth="16" markerHeight="12" refX="16" refY="6" viewBox="0 0 16 12" orient="auto" markerUnits="userSpaceOnUse"><path id="SvgjsPath1249" d="M0,2 L14,6 L0,11 L0,2" fill="#323232" stroke="#323232" stroke-width="2"></path></marker><marker id="SvgjsMarker1252" markerWidth="16" markerHeight="12" refX="16" refY="6" viewBox="0 0 16 12" orient="auto" markerUnits="userSpaceOnUse"><path id="SvgjsPath1253" d="M0,2 L14,6 L0,11 L0,2" fill="#323232" stroke="#323232" stroke-width="2"></path></marker><marker id="SvgjsMarker1270" markerWidth="16" markerHeight="12" refX="16" refY="6" viewBox="0 0 16 12" orient="auto" markerUnits="userSpaceOnUse"><path id="SvgjsPath1271" d="M0,2 L14,6 L0,11 L0,2" fill="#323232" stroke="#323232" stroke-width="2"></path></marker><marker id="SvgjsMarker1280" markerWidth="16" markerHeight="12" refX="16" refY="6" viewBox="0 0 16 12" orient="auto" markerUnits="userSpaceOnUse"><path id="SvgjsPath1281" d="M0,2 L14,6 L0,11 L0,2" fill="#323232" stroke="#323232" stroke-width="2"></path></marker><marker id="SvgjsMarker1284" markerWidth="16" markerHeight="12" refX="16" refY="6" viewBox="0 0 16 12" orient="auto" markerUnits="userSpaceOnUse"><path id="SvgjsPath1285" d="M0,2 L14,6 L0,11 L0,2" fill="#323232" stroke="#323232" stroke-width="2"></path></marker></defs><g id="SvgjsG1008" transform="translate(77.5625,25)"><path id="SvgjsPath1009" d="M 9.666666666666666 0L 63.333333333333336 0C 76.22222222222223 0 76.22222222222223 29 63.333333333333336 29L 9.666666666666666 29C -3.222222222222222 29 -3.222222222222222 0 9.666666666666666 0Z" stroke="rgba(50,50,50,1)" stroke-width="2" fill-opacity="1" fill="#ffffff"></path><g id="SvgjsG1010"><text id="SvgjsText1011" font-family="微软雅黑" text-anchor="middle" font-size="14px" width="28" fill="#323232" font-weight="400" align="middle" anchor="middle" family="微软雅黑" size="14px" weight="400" font-style="" opacity="1" y="3.4" transform="rotate(0)"><tspan id="SvgjsTspan1012" dy="17" x="36.5"><tspan id="SvgjsTspan1013" style="text-decoration:;">开始</tspan></tspan></text></g></g><g id="SvgjsG1014" transform="translate(72.0625,78)"><path id="SvgjsPath1015" d="M 0 0L 84 0L 84 28L 0 28Z" stroke="rgba(50,50,50,1)" stroke-width="2" fill-opacity="1" fill="#ffffff"></path><g id="SvgjsG1016"><text id="SvgjsText1017" font-family="微软雅黑" text-anchor="middle" font-size="13px" width="19" fill="#323232" font-weight="400" align="middle" anchor="middle" family="微软雅黑" size="13px" weight="400" font-style="" opacity="1" y="4.05" transform="rotate(0)"><tspan id="SvgjsTspan1018" dy="16" x="42"><tspan id="SvgjsTspan1019" style="text-decoration:;">CLI</tspan></tspan></text></g></g><g id="SvgjsG1020" transform="translate(55,179)"><path id="SvgjsPath1021" d="M 0 0L 118.125 0L 118.125 28L 0 28Z" stroke="rgba(50,50,50,1)" stroke-width="2" fill-opacity="1" fill="#ffffff"></path><g id="SvgjsG1022"><text id="SvgjsText1023" font-family="微软雅黑" text-anchor="middle" font-size="13px" width="78" fill="#323232" font-weight="400" align="middle" anchor="middle" family="微软雅黑" size="13px" weight="400" font-style="" opacity="1" y="4.05" transform="rotate(0)"><tspan id="SvgjsTspan1024" dy="16" x="59.5"><tspan id="SvgjsTspan1025" style="text-decoration:;">设制中断向量</tspan></tspan></text></g></g><g id="SvgjsG1026" transform="translate(60.6875,228)"><path id="SvgjsPath1027" d="M 0 0L 106.75 0L 106.75 24L 0 24Z" stroke="rgba(50,50,50,1)" stroke-width="2" fill-opacity="1" fill="#ffffff"></path><g id="SvgjsG1028"><text id="SvgjsText1029" font-family="微软雅黑" text-anchor="middle" font-size="13px" width="70" fill="#323232" font-weight="400" align="middle" anchor="middle" family="微软雅黑" size="13px" weight="400" font-style="" opacity="1" y="2.05" transform="rotate(0)"><tspan id="SvgjsTspan1030" dy="16" x="53.5"><tspan id="SvgjsTspan1031" style="text-decoration:;">初始化8259</tspan></tspan></text></g></g><g id="SvgjsG1032" transform="translate(72.0625,277)"><path id="SvgjsPath1033" d="M 0 0L 84 0L 84 28L 0 28Z" stroke="rgba(50,50,50,1)" stroke-width="2" fill-opacity="1" fill="#ffffff"></path><g id="SvgjsG1034"><text id="SvgjsText1035" font-family="微软雅黑" text-anchor="middle" font-size="13px" width="19" fill="#323232" font-weight="400" align="middle" anchor="middle" family="微软雅黑" size="13px" weight="400" font-style="" opacity="1" y="4.05" transform="rotate(0)"><tspan id="SvgjsTspan1036" dy="16" x="42"><tspan id="SvgjsTspan1037" style="text-decoration:;">STI</tspan></tspan></text></g></g><g id="SvgjsG1038" transform="translate(55,328)"><path id="SvgjsPath1039" d="M 0 0L 118.125 0L 118.125 28L 0 28Z" stroke="rgba(50,50,50,1)" stroke-width="2" fill-opacity="1" fill="#ffffff"></path><g id="SvgjsG1040"><text id="SvgjsText1041" font-family="微软雅黑" text-anchor="middle" font-size="13px" width="65" fill="#323232" font-weight="400" align="middle" anchor="middle" family="微软雅黑" size="13px" weight="400" font-style="" opacity="1" y="4.05" transform="rotate(0)"><tspan id="SvgjsTspan1042" dy="16" x="59.5"><tspan id="SvgjsTspan1043" style="text-decoration:;">显示子程序</tspan></tspan></text></g></g><g id="SvgjsG1044"><path id="SvgjsPath1045" d="M114.0625 54L114.0625 66L114.0625 66L114.0625 78" stroke="#323232" stroke-width="2" fill="none" marker-end="url(#SvgjsMarker1046)"></path></g><g id="SvgjsG1048"><path id="SvgjsPath1049" d="M114.0625 207L114.0625 217.5L114.0625 217.5L114.0625 228" stroke="#323232" stroke-width="2" fill="none" marker-end="url(#SvgjsMarker1050)"></path></g><g id="SvgjsG1052"><path id="SvgjsPath1053" d="M114.0625 252L114.0625 264.5L114.0625 264.5L114.0625 277" stroke="#323232" stroke-width="2" fill="none" marker-end="url(#SvgjsMarker1054)"></path></g><g id="SvgjsG1056"><path id="SvgjsPath1057" d="M114.0625 305L114.0625 316.5L114.0625 316.5L114.0625 328" stroke="#323232" stroke-width="2" fill="none" marker-end="url(#SvgjsMarker1058)"></path></g><g id="SvgjsG1060"><path id="SvgjsPath1061" d="M114.0625 356L114.0625 386L25 386L25 342L55 342" stroke="#323232" stroke-width="2" fill="none" marker-end="url(#SvgjsMarker1062)"></path></g><g id="SvgjsG1064" transform="translate(55,127)"><path id="SvgjsPath1065" d="M 0 0L 118.125 0L 118.125 28L 0 28Z" stroke="rgba(50,50,50,1)" stroke-width="2" fill-opacity="1" fill="#ffffff"></path><g id="SvgjsG1066"><text id="SvgjsText1067" font-family="微软雅黑" text-anchor="middle" font-size="13px" width="76" fill="#323232" font-weight="400" align="middle" anchor="middle" family="微软雅黑" size="13px" weight="400" font-style="" opacity="1" y="4.05" transform="rotate(0)"><tspan id="SvgjsTspan1068" dy="16" x="59.5"><tspan id="SvgjsTspan1069" style="text-decoration:;">初始化显示P.</tspan></tspan></text></g></g><g id="SvgjsG1070"><path id="SvgjsPath1071" d="M114.0625 106L114.0625 116.5L114.0625 116.5L114.0625 127" stroke="#323232" stroke-width="2" fill="none" marker-end="url(#SvgjsMarker1072)"></path></g><g id="SvgjsG1074"><path id="SvgjsPath1075" d="M114.0625 155L114.0625 167L114.0625 167L114.0625 179" stroke="#323232" stroke-width="2" fill="none" marker-end="url(#SvgjsMarker1076)"></path></g><g id="SvgjsG1078" transform="translate(267.5625,45)"><path id="SvgjsPath1079" d="M 9.666666666666666 0L 63.333333333333336 0C 76.22222222222223 0 76.22222222222223 29 63.333333333333336 29L 9.666666666666666 29C -3.222222222222222 29 -3.222222222222222 0 9.666666666666666 0Z" stroke="rgba(50,50,50,1)" stroke-width="2" fill-opacity="1" fill="#ffffff"></path><g id="SvgjsG1080"><text id="SvgjsText1081" font-family="微软雅黑" text-anchor="middle" font-size="14px" width="28" fill="#323232" font-weight="400" align="middle" anchor="middle" family="微软雅黑" size="14px" weight="400" font-style="" opacity="1" y="3.4" transform="rotate(0)"><tspan id="SvgjsTspan1082" dy="17" x="36.5"><tspan id="SvgjsTspan1083" style="text-decoration:;">开始</tspan></tspan></text></g></g><g id="SvgjsG1084" transform="translate(262.0625,98)"><path id="SvgjsPath1085" d="M 0 0L 84 0L 84 28L 0 28Z" stroke="rgba(50,50,50,1)" stroke-width="2" fill-opacity="1" fill="#ffffff"></path><g id="SvgjsG1086"><text id="SvgjsText1087" font-family="微软雅黑" text-anchor="middle" font-size="13px" width="19" fill="#323232" font-weight="400" align="middle" anchor="middle" family="微软雅黑" size="13px" weight="400" font-style="" opacity="1" y="4.05" transform="rotate(0)"><tspan id="SvgjsTspan1088" dy="16" x="42"><tspan id="SvgjsTspan1089" style="text-decoration:;">CLI</tspan></tspan></text></g></g><g id="SvgjsG1090" transform="translate(245,200)"><path id="SvgjsPath1091" d="M 0 0L 118.125 0L 118.125 28L 0 28Z" stroke="rgba(50,50,50,1)" stroke-width="2" fill-opacity="1" fill="#ffffff"></path><g id="SvgjsG1092"><text id="SvgjsText1093" font-family="微软雅黑" text-anchor="middle" font-size="13px" width="65" fill="#323232" font-weight="400" align="middle" anchor="middle" family="微软雅黑" size="13px" weight="400" font-style="" opacity="1" y="4.05" transform="rotate(0)"><tspan id="SvgjsTspan1094" dy="16" x="59.5"><tspan id="SvgjsTspan1095" style="text-decoration:;">显示子程序</tspan></tspan></text></g></g><g id="SvgjsG1096" transform="translate(250.6875,248)"><path id="SvgjsPath1097" d="M 0 0L 106.75 0L 106.75 24L 0 24Z" stroke="rgba(50,50,50,1)" stroke-width="2" fill-opacity="1" fill="#ffffff"></path><g id="SvgjsG1098"><text id="SvgjsText1099" font-family="微软雅黑" text-anchor="middle" font-size="13px" width="74" fill="#323232" font-weight="400" align="middle" anchor="middle" family="微软雅黑" size="13px" weight="400" font-style="" opacity="1" y="2.05" transform="rotate(0)"><tspan id="SvgjsTspan1100" dy="16" x="53.5"><tspan id="SvgjsTspan1101" style="text-decoration:;">一般EOI命令</tspan></tspan></text></g></g><g id="SvgjsG1102" transform="translate(262.0625,297)"><path id="SvgjsPath1103" d="M 0 0L 84 0L 84 28L 0 28Z" stroke="rgba(50,50,50,1)" stroke-width="2" fill-opacity="1" fill="#ffffff"></path><g id="SvgjsG1104"><text id="SvgjsText1105" font-family="微软雅黑" text-anchor="middle" font-size="13px" width="19" fill="#323232" font-weight="400" align="middle" anchor="middle" family="微软雅黑" size="13px" weight="400" font-style="" opacity="1" y="4.05" transform="rotate(0)"><tspan id="SvgjsTspan1106" dy="16" x="42"><tspan id="SvgjsTspan1107" style="text-decoration:;">STI</tspan></tspan></text></g></g><g id="SvgjsG1108"><path id="SvgjsPath1109" d="M304.0625 74L304.0625 86L304.0625 86L304.0625 98" stroke="#323232" stroke-width="2" fill="none" marker-end="url(#SvgjsMarker1110)"></path></g><g id="SvgjsG1112"><path id="SvgjsPath1113" d="M304.0625 228L304.0625 238L304.0625 238L304.0625 248" stroke="#323232" stroke-width="2" fill="none" marker-end="url(#SvgjsMarker1114)"></path></g><g id="SvgjsG1116"><path id="SvgjsPath1117" d="M304.0625 272L304.0625 284.5L304.0625 284.5L304.0625 297" stroke="#323232" stroke-width="2" fill="none" marker-end="url(#SvgjsMarker1118)"></path></g><g id="SvgjsG1120"><path id="SvgjsPath1121" d="M304.0625 325L304.0625 338L304.0625 338L304.0625 351" stroke="#323232" stroke-width="2" fill="none" marker-end="url(#SvgjsMarker1122)"></path></g><g id="SvgjsG1124" transform="translate(245,147)"><path id="SvgjsPath1125" d="M 0 0L 118.125 0L 118.125 28L 0 28Z" stroke="rgba(50,50,50,1)" stroke-width="2" fill-opacity="1" fill="#ffffff"></path><g id="SvgjsG1126"><text id="SvgjsText1127" font-family="微软雅黑" text-anchor="middle" font-size="13px" width="65" fill="#323232" font-weight="400" align="middle" anchor="middle" family="微软雅黑" size="13px" weight="400" font-style="" opacity="1" y="4.05" transform="rotate(0)"><tspan id="SvgjsTspan1128" dy="16" x="59.5"><tspan id="SvgjsTspan1129" style="text-decoration:;">更新缓冲区</tspan></tspan></text></g></g><g id="SvgjsG1130"><path id="SvgjsPath1131" d="M304.0625 126L304.0625 136.5L304.0625 136.5L304.0625 147" stroke="#323232" stroke-width="2" fill="none" marker-end="url(#SvgjsMarker1132)"></path></g><g id="SvgjsG1134"><path id="SvgjsPath1135" d="M304.0625 175L304.0625 187.5L304.0625 187.5L304.0625 200" stroke="#323232" stroke-width="2" fill="none" marker-end="url(#SvgjsMarker1136)"></path></g><g id="SvgjsG1138" transform="translate(267.5625,351)"><path id="SvgjsPath1139" d="M 9.666666666666666 0L 63.333333333333336 0C 76.22222222222223 0 76.22222222222223 29 63.333333333333336 29L 9.666666666666666 29C -3.222222222222222 29 -3.222222222222222 0 9.666666666666666 0Z" stroke="rgba(50,50,50,1)" stroke-width="2" fill-opacity="1" fill="#ffffff"></path><g id="SvgjsG1140"><text id="SvgjsText1141" font-family="微软雅黑" text-anchor="middle" font-size="14px" width="29" fill="#323232" font-weight="400" align="middle" anchor="middle" family="微软雅黑" size="14px" weight="400" font-style="" opacity="1" y="3.4" transform="rotate(0)"><tspan id="SvgjsTspan1142" dy="17" x="36.5"><tspan id="SvgjsTspan1143" style="text-decoration:;">IRET</tspan></tspan></text></g></g><g id="SvgjsG1144" transform="translate(447.5625,45)"><path id="SvgjsPath1145" d="M 9.666666666666666 0L 63.333333333333336 0C 76.22222222222223 0 76.22222222222223 29 63.333333333333336 29L 9.666666666666666 29C -3.222222222222222 29 -3.222222222222222 0 9.666666666666666 0Z" stroke="rgba(50,50,50,1)" stroke-width="2" fill-opacity="1" fill="#ffffff"></path><g id="SvgjsG1146"><text id="SvgjsText1147" font-family="微软雅黑" text-anchor="middle" font-size="14px" width="28" fill="#323232" font-weight="400" align="middle" anchor="middle" family="微软雅黑" size="14px" weight="400" font-style="" opacity="1" y="3.4" transform="rotate(0)"><tspan id="SvgjsTspan1148" dy="17" x="36.5"><tspan id="SvgjsTspan1149" style="text-decoration:;">开始</tspan></tspan></text></g></g><g id="SvgjsG1150" transform="translate(442.0625,98)"><path id="SvgjsPath1151" d="M 0 0L 84 0L 84 28L 0 28Z" stroke="rgba(50,50,50,1)" stroke-width="2" fill-opacity="1" fill="#ffffff"></path><g id="SvgjsG1152"><text id="SvgjsText1153" font-family="微软雅黑" text-anchor="middle" font-size="13px" width="19" fill="#323232" font-weight="400" align="middle" anchor="middle" family="微软雅黑" size="13px" weight="400" font-style="" opacity="1" y="4.05" transform="rotate(0)"><tspan id="SvgjsTspan1154" dy="16" x="42"><tspan id="SvgjsTspan1155" style="text-decoration:;">CLI</tspan></tspan></text></g></g><g id="SvgjsG1156" transform="translate(425,199)"><path id="SvgjsPath1157" d="M 0 0L 118.125 0L 118.125 28L 0 28Z" stroke="rgba(50,50,50,1)" stroke-width="2" fill-opacity="1" fill="#ffffff"></path><g id="SvgjsG1158"><text id="SvgjsText1159" font-family="微软雅黑" text-anchor="middle" font-size="13px" width="78" fill="#323232" font-weight="400" align="middle" anchor="middle" family="微软雅黑" size="13px" weight="400" font-style="" opacity="1" y="4.05" transform="rotate(0)"><tspan id="SvgjsTspan1160" dy="16" x="59.5"><tspan id="SvgjsTspan1161" style="text-decoration:;">设制中断向量</tspan></tspan></text></g></g><g id="SvgjsG1162" transform="translate(430.6875,248)"><path id="SvgjsPath1163" d="M 0 0L 106.75 0L 106.75 24L 0 24Z" stroke="rgba(50,50,50,1)" stroke-width="2" fill-opacity="1" fill="#ffffff"></path><g id="SvgjsG1164"><text id="SvgjsText1165" font-family="微软雅黑" text-anchor="middle" font-size="13px" width="70" fill="#323232" font-weight="400" align="middle" anchor="middle" family="微软雅黑" size="13px" weight="400" font-style="" opacity="1" y="2.05" transform="rotate(0)"><tspan id="SvgjsTspan1166" dy="16" x="53.5"><tspan id="SvgjsTspan1167" style="text-decoration:;">初始化8253</tspan></tspan></text></g></g><g id="SvgjsG1168" transform="translate(442.0625,348)"><path id="SvgjsPath1169" d="M 0 0L 84 0L 84 28L 0 28Z" stroke="rgba(50,50,50,1)" stroke-width="2" fill-opacity="1" fill="#ffffff"></path><g id="SvgjsG1170"><text id="SvgjsText1171" font-family="微软雅黑" text-anchor="middle" font-size="13px" width="19" fill="#323232" font-weight="400" align="middle" anchor="middle" family="微软雅黑" size="13px" weight="400" font-style="" opacity="1" y="4.05" transform="rotate(0)"><tspan id="SvgjsTspan1172" dy="16" x="42"><tspan id="SvgjsTspan1173" style="text-decoration:;">STI</tspan></tspan></text></g></g><g id="SvgjsG1174" transform="translate(425,402)"><path id="SvgjsPath1175" d="M 0 0L 118.125 0L 118.125 28L 0 28Z" stroke="rgba(50,50,50,1)" stroke-width="2" fill-opacity="1" fill="#ffffff"></path><g id="SvgjsG1176"><text id="SvgjsText1177" font-family="微软雅黑" text-anchor="middle" font-size="13px" width="65" fill="#323232" font-weight="400" align="middle" anchor="middle" family="微软雅黑" size="13px" weight="400" font-style="" opacity="1" y="4.05" transform="rotate(0)"><tspan id="SvgjsTspan1178" dy="16" x="59.5"><tspan id="SvgjsTspan1179" style="text-decoration:;">显示子程序</tspan></tspan></text></g></g><g id="SvgjsG1180"><path id="SvgjsPath1181" d="M484.0625 74L484.0625 86L484.0625 86L484.0625 98" stroke="#323232" stroke-width="2" fill="none" marker-end="url(#SvgjsMarker1182)"></path></g><g id="SvgjsG1184"><path id="SvgjsPath1185" d="M484.0625 227L484.0625 237.5L484.0625 237.5L484.0625 248" stroke="#323232" stroke-width="2" fill="none" marker-end="url(#SvgjsMarker1186)"></path></g><g id="SvgjsG1188"><path id="SvgjsPath1189" d="M484.0625 376L484.0625 389L484.0625 389L484.0625 402" stroke="#323232" stroke-width="2" fill="none" marker-end="url(#SvgjsMarker1190)"></path></g><g id="SvgjsG1192"><path id="SvgjsPath1193" d="M484.0625 430L484.0625 460L395 460L395 416L425 416" stroke="#323232" stroke-width="2" fill="none" marker-end="url(#SvgjsMarker1194)"></path></g><g id="SvgjsG1196" transform="translate(425,147)"><path id="SvgjsPath1197" d="M 0 0L 118.125 0L 118.125 28L 0 28Z" stroke="rgba(50,50,50,1)" stroke-width="2" fill-opacity="1" fill="#ffffff"></path><g id="SvgjsG1198"><text id="SvgjsText1199" font-family="微软雅黑" text-anchor="middle" font-size="13px" width="76" fill="#323232" font-weight="400" align="middle" anchor="middle" family="微软雅黑" size="13px" weight="400" font-style="" opacity="1" y="4.05" transform="rotate(0)"><tspan id="SvgjsTspan1200" dy="16" x="59.5"><tspan id="SvgjsTspan1201" style="text-decoration:;">初始化显示P.</tspan></tspan></text></g></g><g id="SvgjsG1202"><path id="SvgjsPath1203" d="M484.0625 126L484.0625 136.5L484.0625 136.5L484.0625 147" stroke="#323232" stroke-width="2" fill="none" marker-end="url(#SvgjsMarker1204)"></path></g><g id="SvgjsG1206"><path id="SvgjsPath1207" d="M484.0625 175L484.0625 187L484.0625 187L484.0625 199" stroke="#323232" stroke-width="2" fill="none" marker-end="url(#SvgjsMarker1208)"></path></g><g id="SvgjsG1210" transform="translate(430.6875,299)"><path id="SvgjsPath1211" d="M 0 0L 106.75 0L 106.75 24L 0 24Z" stroke="rgba(50,50,50,1)" stroke-width="2" fill-opacity="1" fill="#ffffff"></path><g id="SvgjsG1212"><text id="SvgjsText1213" font-family="微软雅黑" text-anchor="middle" font-size="13px" width="70" fill="#323232" font-weight="400" align="middle" anchor="middle" family="微软雅黑" size="13px" weight="400" font-style="" opacity="1" y="2.05" transform="rotate(0)"><tspan id="SvgjsTspan1214" dy="16" x="53.5"><tspan id="SvgjsTspan1215" style="text-decoration:;">初始化8259</tspan></tspan></text></g></g><g id="SvgjsG1216"><path id="SvgjsPath1217" d="M484.0625 272L484.0625 285.5L484.0625 285.5L484.0625 299" stroke="#323232" stroke-width="2" fill="none" marker-end="url(#SvgjsMarker1218)"></path></g><g id="SvgjsG1220"><path id="SvgjsPath1221" d="M484.0625 323L484.0625 335.5L484.0625 335.5L484.0625 348" stroke="#323232" stroke-width="2" fill="none" marker-end="url(#SvgjsMarker1222)"></path></g><g id="SvgjsG1224" transform="translate(627.5625,45)"><path id="SvgjsPath1225" d="M 9.666666666666666 0L 63.333333333333336 0C 76.22222222222223 0 76.22222222222223 29 63.333333333333336 29L 9.666666666666666 29C -3.222222222222222 29 -3.222222222222222 0 9.666666666666666 0Z" stroke="rgba(50,50,50,1)" stroke-width="2" fill-opacity="1" fill="#ffffff"></path><g id="SvgjsG1226"><text id="SvgjsText1227" font-family="微软雅黑" text-anchor="middle" font-size="14px" width="28" fill="#323232" font-weight="400" align="middle" anchor="middle" family="微软雅黑" size="14px" weight="400" font-style="" opacity="1" y="3.4" transform="rotate(0)"><tspan id="SvgjsTspan1228" dy="17" x="36.5"><tspan id="SvgjsTspan1229" style="text-decoration:;">开始</tspan></tspan></text></g></g><g id="SvgjsG1230" transform="translate(607.5625,166)"><path id="SvgjsPath1231" d="M 0 20.5L 56.5 0L 113 20.5L 56.5 41L 0 20.5Z" stroke="rgba(50,50,50,1)" stroke-width="2" fill-opacity="1" fill="#ffffff"></path><g id="SvgjsG1232"><text id="SvgjsText1233" font-family="微软雅黑" text-anchor="middle" font-size="14px" width="52" fill="#323232" font-weight="400" align="middle" anchor="middle" family="微软雅黑" size="14px" weight="400" font-style="" opacity="1" y="9.4" transform="rotate(0)"><tspan id="SvgjsTspan1234" dy="17" x="56.5"><tspan id="SvgjsTspan1235" style="text-decoration:;">PC1=0?</tspan></tspan></text></g></g><g id="SvgjsG1236" transform="translate(608.3125,106)"><path id="SvgjsPath1237" d="M 0 0L 111.5 0L 111.5 31L 0 31Z" stroke="rgba(50,50,50,1)" stroke-width="2" fill-opacity="1" fill="#ffffff"></path><g id="SvgjsG1238"><text id="SvgjsText1239" font-family="微软雅黑" text-anchor="middle" font-size="14px" width="79" fill="#323232" font-weight="400" align="middle" anchor="middle" family="微软雅黑" size="14px" weight="400" font-style="" opacity="1" y="4.4" transform="rotate(0)"><tspan id="SvgjsTspan1240" dy="17" x="56"><tspan id="SvgjsTspan1241" style="text-decoration:;">获取C口状态</tspan></tspan></text></g></g><g id="SvgjsG1242"><path id="SvgjsPath1243" d="M664.0625 74L664.0625 90L664.0625 90L664.0625 106" stroke="#323232" stroke-width="2" fill="none" marker-end="url(#SvgjsMarker1244)"></path></g><g id="SvgjsG1246"><path id="SvgjsPath1247" d="M664.0625 137L664.0625 151.5L664.0625 151.5L664.0625 166" stroke="#323232" stroke-width="2" fill="none" marker-end="url(#SvgjsMarker1248)"></path></g><g id="SvgjsG1250"><path id="SvgjsPath1251" d="M720.5625 186.5L750.5625 186.5L750.5625 121.5L719.8125 121.5" stroke="#323232" stroke-width="2" fill="none" marker-end="url(#SvgjsMarker1252)"></path></g><g id="SvgjsG1254" transform="translate(713.5625,159)"><path id="SvgjsPath1255" d="M 0 0L 39 0L 39 29L 0 29Z" stroke="none" fill="none"></path><g id="SvgjsG1256"><text id="SvgjsText1257" font-family="微软雅黑" text-anchor="middle" font-size="14px" width="14" fill="#323232" font-weight="400" align="middle" anchor="middle" family="微软雅黑" size="14px" weight="400" font-style="" opacity="1" y="3.4" transform="rotate(0)"><tspan id="SvgjsTspan1258" dy="17" x="19.5"><tspan id="SvgjsTspan1259" style="text-decoration:;">是</tspan></tspan></text></g></g><g id="SvgjsG1260" transform="translate(601.84375,238.5)"><path id="SvgjsPath1261" d="M 16.5 0L 124.4375 0L 107.9375 49.5L 0 49.5L 16.5 0Z" stroke="rgba(50,50,50,1)" stroke-width="2" fill-opacity="1" fill="#ffffff"></path><g id="SvgjsG1262"><text id="SvgjsText1263" font-family="微软雅黑" text-anchor="middle" font-size="14px" width="75" fill="#323232" font-weight="400" align="middle" anchor="middle" family="微软雅黑" size="14px" weight="400" font-style="" opacity="1" y="4.65" transform="rotate(0)"><tspan id="SvgjsTspan1264" dy="17" x="62.665625"><tspan id="SvgjsTspan1265" style="text-decoration:;">A口B口输出</tspan></tspan><tspan id="SvgjsTspan1266" dy="17" x="62.665625"><tspan id="SvgjsTspan1267" style="text-decoration:;">数据到LED</tspan></tspan></text></g></g><g id="SvgjsG1268"><path id="SvgjsPath1269" d="M664.0625 207L664.0625 222.75L664.0625 222.75L664.0625 238.5" stroke="#323232" stroke-width="2" fill="none" marker-end="url(#SvgjsMarker1270)"></path></g><g id="SvgjsG1272" transform="translate(605,320)"><path id="SvgjsPath1273" d="M 0 0L 118.125 0L 118.125 28L 0 28Z" stroke="rgba(50,50,50,1)" stroke-width="2" fill-opacity="1" fill="#ffffff"></path><g id="SvgjsG1274"><text id="SvgjsText1275" font-family="微软雅黑" text-anchor="middle" font-size="13px" width="65" fill="#323232" font-weight="400" align="middle" anchor="middle" family="微软雅黑" size="13px" weight="400" font-style="" opacity="1" y="4.05" transform="rotate(0)"><tspan id="SvgjsTspan1276" dy="16" x="59.5"><tspan id="SvgjsTspan1277" style="text-decoration:;">延时子程序</tspan></tspan></text></g></g><g id="SvgjsG1278"><path id="SvgjsPath1279" d="M664.0625 288L664.0625 304L664.0625 304L664.0625 320" stroke="#323232" stroke-width="2" fill="none" marker-end="url(#SvgjsMarker1280)"></path></g><g id="SvgjsG1282"><path id="SvgjsPath1283" d="M664.0625 348L664.0625 378L575 378L575 121.5L608.3125 121.5" stroke="#323232" stroke-width="2" fill="none" marker-end="url(#SvgjsMarker1284)"></path></g><g id="SvgjsG1286" transform="translate(661.5625,203)"><path id="SvgjsPath1287" d="M 0 0L 39 0L 39 29L 0 29Z" stroke="none" fill="none"></path><g id="SvgjsG1288"><text id="SvgjsText1289" font-family="微软雅黑" text-anchor="middle" font-size="14px" width="14" fill="#323232" font-weight="400" align="middle" anchor="middle" family="微软雅黑" size="14px" weight="400" font-style="" opacity="1" y="3.4" transform="rotate(0)"><tspan id="SvgjsTspan1290" dy="17" x="19.5"><tspan id="SvgjsTspan1291" style="text-decoration:;">否</tspan></tspan></text></g></g></svg>